<?xml version="1.0" encoding="utf-8"?>
<svg viewBox="1.016 1.828 180.834 204.143" xmlns="http://www.w3.org/2000/svg">
  <ellipse style="stroke: rgb(0, 0, 0); fill: rgb(255, 255, 255);" cx="93.071" cy="100.151" rx="85.474" ry="79.776"/>
  <g id="layer1" style="" transform="matrix(0.911756, 0, 0, 1.020721, -3.097979, -44.100986)">
    <path id="path225" style="fill:#003057;fill-opacity:1;stroke-width:0.200473" d="M 103.576 44.997 C 36.495 78.608 4.801 95.373 4.801 95.373 C 4.029 145.72 5.049 195.372 5.049 195.372 C 54.564 219.821 104.072 244.996 104.072 244.996 C 152.086 220.113 202.848 194.621 202.848 194.621 C 202.863 147.994 202.599 94.621 202.599 94.621 C 153.842 68.817 103.576 44.997 103.576 44.997 Z M 104.413 71.573 C 129.677 82.723 178.959 109.182 178.959 109.182 C 179.728 132.682 179.128 180.237 179.128 180.237 C 154.633 192.588 103.993 218.758 103.993 218.758 C 78.729 207.609 28.689 180.811 28.689 180.811 C 27.92 157.311 28.521 109.756 28.521 109.756 C 53.015 97.406 104.413 71.573 104.413 71.573 Z"/>
    <rect style="fill:#003057;fill-opacity:1;stroke-width:0.389891" id="rect313" width="66.283478" height="29.036375" x="119.8764" y="130.47839"/>
    <path id="path1379" style="fill:#003057;fill-opacity:1;stroke-width:0.264583" d="M 103.824 117.112 C 93.292 117.116 82.772 124.929 77.325 133.282 C 86.874 133.148 100.42 132.949 100.42 132.949 C 107.049 138.79 112.95 145.634 112.95 145.634 C 107.926 151.991 101.415 158.358 101.415 158.358 C 89.761 158.537 78.277 158.698 78.277 158.698 C 83.765 166.883 93.425 172.878 103.824 172.881 C 120.443 172.881 133.914 160.397 133.914 144.997 C 133.915 129.596 120.443 117.112 103.824 117.112 Z"/>
  </g>
</svg>