<?xml version="1.0" encoding="utf-8"?><svg xmlns="http://www.w3.org/2000/svg" xmlns:xlink="http://www.w3.org/1999/xlink"><symbol viewBox="0 0 32 32" fill-rule="evenodd" id="ki-a11y" xmlns="http://www.w3.org/2000/svg">
  <path d="M22 30h-5v-8h-2v8h-5V15H3v-5h26v5h-7zm-3-2h1V13h7v-1H5v1h7v15h1v-8h6zM16.69 8.93a3.5 3.5 0 1 1 2.74-2.74 3.5 3.5 0 0 1-2.74 2.74zM16 4a1.5 1.5 0 1 0 1.5 1.5A1.5 1.5 0 0 0 16 4z"/>
</symbol>
<symbol xmlns="http://www.w3.org/2000/svg" id="ki-image-upload" viewBox="0 0 18 18">
    <path fill="#0062B2" fill-rule="evenodd" d="M5.5 10.5L8 13.51 11.5 9l4.5 6H2l3.5-4.5zM18 16V2c0-1.1-.9-2-2-2H2C.9 0 0 .9 0 2v14c0 1.1.9 2 2 2h14c1.1 0 2-.9 2-2z"/>
</symbol>
<symbol xmlns="http://www.w3.org/2000/svg"  viewBox="0 0 24 24" fill-rule="evenodd"  id="ki-circle-info-f">
  <path d="M12 2C6.48 2 2 6.48 2 12s4.48 10 10 10 10-4.48 10-10S17.52 2 12 2zm1 15h-2v-6h2v6zm0-8h-2V7h2v2z"/>
</symbol>
<symbol xmlns="http://www.w3.org/2000/svg" fill-rule="evenodd" viewBox="0 0 24 24" id="ki-description"><path d="M0 0h24v24H0z" fill="none"/><path d="M14 2H6c-1.1 0-1.99.9-1.99 2L4 20c0 1.1.89 2 1.99 2H18c1.1 0 2-.9 2-2V8l-6-6zm2 16H8v-2h8v2zm0-4H8v-2h8v2zm-3-5V3.5L18.5 9H13z"/></symbol>
<symbol xmlns="http://www.w3.org/2000/svg" id="ki-power" viewBox="0 0 24 24"><path fill="none" d="M0 0h24v24H0z"/><path d="M13 3h-2v10h2V3zm4.83 2.17l-1.42 1.42C17.99 7.86 19 9.81 19 12c0 3.87-3.13 7-7 7s-7-3.13-7-7c0-2.19 1.01-4.14 2.58-5.42L6.17 5.17C4.23 6.82 3 9.26 3 12c0 4.97 4.03 9 9 9s9-4.03 9-9c0-2.74-1.23-5.18-3.17-6.83z"/></symbol>
<symbol viewBox="0 0 32 32" fill-rule="evenodd" id="ki-a11y-f" xmlns="http://www.w3.org/2000/svg">
  <path d="M28 11v3h-8v15h-3v-7h-2v7h-3V14H4v-3h24z"/>
  <circle cx="16" cy="6" r="3"/>
<symbol viewBox="0 0 24 24" xmlns="http://www.w3.org/2000/svg" id="ki-bell"><path d="M12 22c1.1 0 2-.9 2-2h-4c0 1.1.89 2 2 2zm6-6v-5c0-3.07-1.64-5.64-4.5-6.32V4c0-.83-.67-1.5-1.5-1.5s-1.5.67-1.5 1.5v.68C7.63 5.36 6 7.92 6 11v5l-2 2v1h16v-1l-2-2z"/></symbol>
<symbol fill-rule="evenodd" transform="translate(0 -4)" id="ki-chart">
  <path d="M15.333 5.333c0 .734-.6 1.334-1.333 1.334-.12 0-.233-.014-.34-.047l-2.373 2.367A1.337 1.337 0 0 1 10 10.667a1.337 1.337 0 0 1-1.287-1.68l-1.7-1.7a1.178 1.178 0 0 1-.346.046c-.12 0-.24-.013-.347-.046l-3.033 3.04c.033.106.046.22.046.34C3.333 11.4 2.733 12 2 12S.667 11.4.667 10.667c0-.734.6-1.334 1.333-1.334.12 0 .233.014.34.047l3.04-3.033a1.337 1.337 0 0 1 1.287-1.68 1.337 1.337 0 0 1 1.286 1.68l1.7 1.7C9.76 8.013 9.88 8 10 8c.12 0 .24.013.347.047l2.366-2.374a1.133 1.133 0 0 1-.046-.34C12.667 4.6 13.267 4 14 4s1.333.6 1.333 1.333z" mask="url(#b)"/>
</symbol>
<symbol xmlns="http://www.w3.org/2000/svg" id="ki-dashboard" viewBox="0 0 24 24">
  <path d="M0 0h24v24H0z" fill="none"/><path d="M3 13h8V3H3v10zm0 8h8v-6H3v6zm10 0h8V11h-8v10zm0-18v6h8V3h-8z"/>
</symbol>
</symbol><symbol viewBox="0 0 32 32" fill-rule="evenodd" id="ki-account" xmlns="http://www.w3.org/2000/svg">
  <path d="M16 3C8.83 3 3 8.83 3 16a12.93 12.93 0 0 0 3.53 8.88 12.97 12.97 0 0 0 18.94 0l.14-.16A12.93 12.93 0 0 0 29 16c0-7.17-5.83-13-13-13zm0 24c-2.84 0-5.42-1.09-7.37-2.86.49-.28 1.21-.5 1.92-.73 1.44-.44 3.19-.98 4.05-2.37a4.33 4.33 0 0 0 2.8 0c.86 1.4 2.61 1.93 4.05 2.37.71.22 1.43.45 1.92.73A10.93 10.93 0 0 1 16 27zm-3-12.55c0-2.33 1.21-3.9 3-3.9s3 1.57 3 3.9c0 2.32-.94 4.82-3 4.82s-3-2.5-3-4.82zm11.74 8.2a9.52 9.52 0 0 0-2.7-1.15c-1.28-.39-2.48-.77-2.95-1.54 1.19-1.2 1.91-3.14 1.91-5.5 0-3.43-2.1-5.9-5-5.9s-5 2.47-5 5.9c0 2.36.72 4.3 1.91 5.5-.47.77-1.67 1.15-2.95 1.54a9.4 9.4 0 0 0-2.7 1.15A10.94 10.94 0 0 1 5 16a11 11 0 0 1 22 0c0 2.5-.85 4.8-2.26 6.65z"/>
</symbol><symbol viewBox="0 0 32 32" fill-rule="evenodd" id="ki-account-f" xmlns="http://www.w3.org/2000/svg">
  <path d="M16 3C8.83 3 3 8.83 3 16a12.93 12.93 0 0 0 3.53 8.88 12.97 12.97 0 0 0 18.94 0l.14-.16A12.93 12.93 0 0 0 29 16c0-7.17-5.83-13-13-13zm8.74 19.65a9.52 9.52 0 0 0-2.7-1.15c-1.28-.39-2.48-.77-2.95-1.54 1.19-1.2 1.91-3.14 1.91-5.51 0-3.42-2.1-5.9-5-5.9s-5 2.48-5 5.9c0 2.37.72 4.31 1.91 5.51-.47.77-1.67 1.15-2.95 1.54a9.4 9.4 0 0 0-2.7 1.15A10.94 10.94 0 0 1 5 16a11 11 0 0 1 22 0c0 2.5-.85 4.8-2.26 6.65z"/>
</symbol><symbol viewBox="0 0 32 32" fill-rule="evenodd" id="ki-airplay" xmlns="http://www.w3.org/2000/svg">
  <path d="M25 6H7a2 2 0 0 0-2 2v12c0 1.1.9 2 2 2h4v-2H7V8h18v12h-4v2h4a2 2 0 0 0 2-2V8a2 2 0 0 0-2-2zM10 25h12l-6-6-6 6z"/>
</symbol><symbol viewBox="0 0 32 32" fill-rule="evenodd" id="ki-arrow-down" xmlns="http://www.w3.org/2000/svg">
  <path d="M3 16l1.86-1.86 9.75 9.75V3h2.78v20.9l9.75-9.76L29 16 16 29z"/>
</symbol><symbol viewBox="0 0 32 32" fill-rule="evenodd" id="ki-arrow-down-circle" xmlns="http://www.w3.org/2000/svg">
  <path d="M30 16a14 14 0 1 0-28 0 14 14 0 0 0 28 0zm-14.01 8L7.5 15.51l2.12-2.12 4.88 4.88V8h3v10.27l4.88-4.88 2.12 2.12L16.01 24l-.01-.01-.01.01z"/>
</symbol><symbol viewBox="0 0 32 32" fill-rule="evenodd" id="ki-arrow-down-left" xmlns="http://www.w3.org/2000/svg">
  <path d="M25.5 26.5v-3h-15l16-16-2-2-16 16v-15h-3v20z"/>
</symbol><symbol viewBox="0 0 32 32" fill-rule="evenodd" id="ki-arrow-down-left-circle" xmlns="http://www.w3.org/2000/svg">
  <path d="M25.9 25.9A14 14 0 1 0 6.1 6.1a14 14 0 0 0 19.8 19.8zM10 22V10h3v7l7-7 2 2-7 7h7v3H10z"/>
</symbol><symbol viewBox="0 0 32 32" fill-rule="evenodd" id="ki-arrow-down-right" xmlns="http://www.w3.org/2000/svg">
  <path d="M6.5 26.5v-3h15l-16-16 2-2 16 16v-15h3v20z"/>
</symbol><symbol viewBox="0 0 32 32" fill-rule="evenodd" id="ki-arrow-down-right-circle" xmlns="http://www.w3.org/2000/svg">
  <path d="M25.9 25.9A14 14 0 1 0 6.1 6.1a14 14 0 0 0 19.8 19.8zM10 22v-3h7l-7-7 2-2 7 7v-7h3v12H10z"/>
</symbol><symbol viewBox="0 0 32 32" fill-rule="evenodd" id="ki-arrow-left" xmlns="http://www.w3.org/2000/svg">
  <path d="M16 30l2-2L7.5 17.5H30v-3H7.5L18 4l-2-2L2 16z"/>
</symbol><symbol viewBox="0 0 32 32" fill-rule="evenodd" id="ki-arrow-left-circle" xmlns="http://www.w3.org/2000/svg">
  <path d="M16 30a14 14 0 1 0 0-28 14 14 0 0 0 0 28zM8 15.99l8.49-8.49 2.12 2.12-4.88 4.88H24v3H13.73l4.88 4.88-2.12 2.12L8 16.01l.01-.01-.01-.01z"/>
</symbol><symbol viewBox="0 0 32 32" fill-rule="evenodd" id="ki-arrow-right" xmlns="http://www.w3.org/2000/svg">
  <path d="M16 2l-2 2 10.5 10.5H2v3h22.5L14 28l2 2 14-14z"/>
</symbol><symbol viewBox="0 0 32 32" fill-rule="evenodd" id="ki-arrow-right-circle" xmlns="http://www.w3.org/2000/svg">
  <path d="M16 2a14 14 0 1 0 0 28 14 14 0 0 0 0-28zm8 14.01l-8.49 8.49-2.12-2.12 4.88-4.88H8v-3h10.27l-4.88-4.88 2.12-2.12L24 15.99l-.01.01.01.01z"/>
</symbol><symbol viewBox="0 0 32 32" fill-rule="evenodd" id="ki-arrow-up" xmlns="http://www.w3.org/2000/svg">
  <path d="M2 16l2 2L14.5 7.5V30h3V7.5L28 18l2-2L16 2z"/>
</symbol><symbol viewBox="0 0 32 32" fill-rule="evenodd" id="ki-arrow-up-circle" xmlns="http://www.w3.org/2000/svg">
  <path d="M2 16a14 14 0 1 0 28 0 14 14 0 0 0-28 0zm14.01-8l8.49 8.49-2.12 2.12-4.88-4.88V24h-3V13.73l-4.88 4.88-2.12-2.12L15.99 8l.01.01.01-.01z"/>
</symbol><symbol viewBox="0 0 32 32" fill-rule="evenodd" id="ki-arrow-up-left" xmlns="http://www.w3.org/2000/svg">
  <path d="M25.5 5.5v3h-15l16 16-2 2-16-16v15h-3v-20z"/>
</symbol><symbol viewBox="0 0 32 32" fill-rule="evenodd" id="ki-arrow-up-left-circle" xmlns="http://www.w3.org/2000/svg">
  <path d="M6.1 6.1a14 14 0 1 0 19.8 19.8A14 14 0 0 0 6.1 6.1zM22 10v3h-7l7 7-2 2-7-7v7h-3V10h12z"/>
</symbol><symbol viewBox="0 0 32 32" fill-rule="evenodd" id="ki-arrow-up-right" xmlns="http://www.w3.org/2000/svg">
  <path d="M6.5 5.5v3h15l-16 16 2 2 16-16v15h3v-20z"/>
</symbol><symbol viewBox="0 0 32 32" fill-rule="evenodd" id="ki-arrow-up-right-circle" xmlns="http://www.w3.org/2000/svg">
  <path d="M6.1 6.1a14 14 0 1 0 19.8 19.8A14 14 0 0 0 6.1 6.1zM22 10v12h-3v-7l-7 7-2-2 7-7h-7v-3h12z"/>
</symbol><symbol viewBox="0 0 32 32" fill-rule="evenodd" id="ki-asterisk" xmlns="http://www.w3.org/2000/svg">
  <path d="M27 14h-7.88l5.57-5.57-2.12-2.12L17 11.88V4h-3v7.88L8.43 6.3 6.3 8.43 11.88 14H4v3h7.88L6.3 22.57l2.12 2.12L14 19.12V27h3v-7.88l5.57 5.57 2.12-2.12L19.12 17H27z"/>
</symbol><symbol viewBox="0 0 32 32" fill-rule="evenodd" id="ki-autopay" xmlns="http://www.w3.org/2000/svg">
  <path d="M17 25v-1.05c.48-.04.95-.11 1.37-.24a5.1 5.1 0 0 0 1.69-.84 3.75 3.75 0 0 0 1.08-1.3 3.83 3.83 0 0 0 .37-1.73c0-.6-.1-1.14-.3-1.62a3.75 3.75 0 0 0-.91-1.29 6.15 6.15 0 0 0-1.56-1.02 13.75 13.75 0 0 0-1.74-.66V9.83a2.87 2.87 0 0 1 1.62.77c.28.26.49.58.63.95s.2.77.2 1.2h2.03a4.5 4.5 0 0 0-1.4-3.25A5.2 5.2 0 0 0 17 8.13V7h-2v1.14a5.95 5.95 0 0 0-1.06.24 5 5 0 0 0-1.64.89 3.78 3.78 0 0 0-1.43 3.02 3.6 3.6 0 0 0 1.34 2.86 6.74 6.74 0 0 0 1.56.97c.38.18.8.33 1.23.48v5.6l-.25-.04a3.57 3.57 0 0 1-1.2-.55 2.79 2.79 0 0 1-.83-.95c-.2-.38-.3-.83-.3-1.37h-2.04a4.24 4.24 0 0 0 .87 2.6c.28.35.6.66.97.92a5.96 5.96 0 0 0 1.2.66c.43.18.88.31 1.35.4l.23.03V25h2zm.62-7.5c.47.2.84.42 1.12.65.28.23.47.48.58.76.1.28.16.6.16.96 0 .76-.28 1.36-.85 1.8-.41.32-.96.52-1.63.6v-5.01l.62.24zm-2.76-2.97a4.83 4.83 0 0 1-1.11-.63 2.27 2.27 0 0 1-.64-.75 1.95 1.95 0 0 1-.2-.9c0-.35.06-.69.19-1 .12-.3.32-.56.58-.79.25-.22.58-.4.98-.52.1-.04.23-.05.34-.08v4.72l-.14-.05z"/>
  <path d="M30.85 9.84A15.97 15.97 0 0 0 16.08 0c-8.82 0-16 7.18-16 16s7.18 16 16 16c4.57 0 8.85-1.95 11.9-5.33l1.68 1.08.27-5.98-5.31 2.76 1.64 1.05A13.93 13.93 0 0 1 16.08 30c-7.72 0-14-6.28-14-14s6.28-14 14-14A13.97 13.97 0 0 1 29 10.61a1 1 0 0 0 1.85-.77z"/>
</symbol><symbol viewBox="0 0 32 32" fill-rule="evenodd" id="ki-backspace" xmlns="http://www.w3.org/2000/svg">
  <path d="M30 8v16H10.83l-8-8 8-8H30m2-2H10L0 16l10 10h22V6z"/>
  <path d="M21.1 16l3.9 3.89-2.1 2.1-3.9-3.9-3.9 3.9-2.1-2.1L16.9 16 13 12.1l2.1-2.1 3.9 3.9 3.9-3.9 2.1 2.1z"/>
</symbol><symbol viewBox="0 0 32 32" fill-rule="evenodd" id="ki-backspace-f" xmlns="http://www.w3.org/2000/svg">
  <path d="M10 6L0 16l10 10h22V6H10zm15 13.88L22.9 22 19 18.1 15.1 22 13 19.9 16.9 16 13 12.1l2.1-2.1 3.9 3.9 3.9-3.9 2.1 2.1-3.9 3.9 3.9 3.88z"/>
</symbol><symbol viewBox="0 0 32 32" fill-rule="evenodd" id="ki-bank" xmlns="http://www.w3.org/2000/svg">
  <path d="M27.63 12.23l-11-9a1 1 0 0 0-1.26 0l-11 9A1 1 0 0 0 5 14h3v9H6a1 1 0 0 0-1 1v4a1 1 0 0 0 1 1h20a1 1 0 0 0 1-1v-4a1 1 0 0 0-1-1h-2v-9h3a1 1 0 1 0 .63-1.77zM10 14h5v9h-5v-9zm15 13H7v-2h18v2zm-3-4h-5v-9h5v9zM7.8 12L16 5.3l8.2 6.7H7.8z"/>
</symbol><symbol viewBox="0 0 32 32" fill-rule="evenodd" id="ki-billing" xmlns="http://www.w3.org/2000/svg">
  <path d="M10 19h8v-2h-8v2zm0-4h12v-2H10v2zm0-4h12V9H10v2zm15.15-7H6.85a.85.85 0 0 0-.85.85v16.5H3.85a.85.85 0 0 0-.85.86v1.26C3 25.63 4.24 27 6.4 27h16.36A3.1 3.1 0 0 0 26 23.76V4.86a.85.85 0 0 0-.85-.86zM6.4 25.06c-1.23 0-1.7-.48-1.7-1.7h14.47c0 .64.14 1.21.39 1.7H6.4zm17.62-1.54c0 1.1-.53 1.54-1.44 1.54-1.53 0-1.59-1.08-1.59-1.6v-1.25a.85.85 0 0 0-.85-.85H8V6l16.03-.03v17.55z" clip-rule="evenodd"/>
</symbol><symbol viewBox="0 0 32 32" fill-rule="evenodd" id="ki-calendar" xmlns="http://www.w3.org/2000/svg">
  <path d="M26 6h-2v3c0 1.1-.9 2-2 2s-2-.9-2-2V6h-8v3c0 1.1-.9 2-2 2s-2-.9-2-2V6H6a2 2 0 0 0-2 2v18c0 1.1.9 2 2 2h20a2 2 0 0 0 2-2V8a2 2 0 0 0-2-2zm0 20H6V14h20v12z"/>
  <path d="M22 4a1 1 0 0 0-1 1v4a1 1 0 0 0 2 0V5a1 1 0 0 0-1-1zM10 4a1 1 0 0 0-1 1v4a1 1 0 0 0 2 0V5a1 1 0 0 0-1-1z"/>
</symbol><symbol viewBox="0 0 32 32" fill-rule="evenodd" id="ki-call-incoming" xmlns="http://www.w3.org/2000/svg">
  <path d="M23.52 19.06l-3.47 1.97c-1.07-.82-2.27-1.7-4.83-4.25-2.55-2.56-3.4-3.81-4.2-4.9l1.91-3.42-6.02-6.02-4.72 4.72s-2.07 5.48 7.55 15.1 15.1 7.55 15.1 7.55l4.72-4.72-6.04-6.03zm.37 8.86s-4.22 1.44-12.74-7.07C2.68 12.37 4.08 8.1 4.08 8.1L6.9 5.28l3.54 3.53L8.68 12s.9 1.97 5.13 6.2c4.27 4.26 6.1 5.21 6.1 5.21l3.28-1.86 3.54 3.54-2.84 2.83z"/>
  <path d="M28 11h-5l6-6-2-2-6 6V4h-3v10h10z"/>
</symbol><symbol viewBox="0 0 32 32" fill-rule="evenodd" id="ki-call-incoming-f" xmlns="http://www.w3.org/2000/svg">
  <path d="M6.95 3.15L3.06 7.03s-1.31 4.6 8 13.92 13.91 7.99 13.91 7.99l3.88-3.89-5.15-5.15-3.36 1.91c-1.33-.52-3.4-1.82-5.86-4.29-2.47-2.47-3.68-4.45-4.23-5.92l1.84-3.31-5.14-5.14zM28 11h-5l6-6-2-2-6 6V4h-3v10h10z"/>
</symbol><symbol viewBox="0 0 32 32" fill-rule="evenodd" id="ki-call-outgoing" xmlns="http://www.w3.org/2000/svg">
  <path d="M23.53 19.04l-3.47 1.97c-1.07-.82-2.27-1.7-4.82-4.25-2.55-2.55-3.4-3.8-4.2-4.88l1.9-3.42-6.01-6.02L2.2 7.16S.15 12.63 9.76 22.24s15.08 7.55 15.08 7.55l4.72-4.72-6.03-6.03zm.37 8.86s-4.22 1.44-12.73-7.07C2.71 12.37 4.1 8.1 4.1 8.1l2.83-2.83 3.54 3.54-1.77 3.18s.9 1.97 5.12 6.19c4.27 4.26 6.1 5.21 6.1 5.21l3.27-1.85 3.54 3.53-2.83 2.83z"/>
  <path d="M18 7h5l-6 6 2 2 6-6v5h3V4H18z"/>
</symbol><symbol viewBox="0 0 32 32" fill-rule="evenodd" id="ki-call-outgoing-f" xmlns="http://www.w3.org/2000/svg">
  <path d="M18 4v3h5.05L17 13.05 18.95 15 25 8.95V14h3V4z"/>
  <path d="M6.97 3l-3.9 3.9s-1.33 4.64 8.03 14 14 8.04 14 8.04l3.9-3.9-5.18-5.19-3.38 1.92c-1.34-.53-3.42-1.83-5.9-4.31-2.48-2.49-3.7-4.48-4.25-5.96l1.85-3.33L6.97 3z"/>
</symbol><symbol viewBox="0 0 32 32" fill-rule="evenodd" id="ki-camera" xmlns="http://www.w3.org/2000/svg">
  <path d="M29 28H3a1 1 0 0 1-1-1V9a1 1 0 0 1 1-1h26a1 1 0 0 1 1 1v18a1 1 0 0 1-1 1zM4 26h24V10H4v16zM20 6h-8a1 1 0 0 1 0-2h8a1 1 0 1 1 0 2z"/>
  <path d="M16 24a6 6 0 1 1 .01-12.01A6 6 0 0 1 16 24zm0-10a4 4 0 1 0 0 8 4 4 0 0 0 0-8z"/>
</symbol><symbol viewBox="0 0 32 32" fill-rule="evenodd" id="ki-cancel" xmlns="http://www.w3.org/2000/svg">
  <path d="M2 16a14 14 0 1 0 28 0 14 14 0 0 0-28 0zm26 0c0 2.95-1.07 5.65-2.85 7.74L8.26 6.84A11.94 11.94 0 0 1 16 4c6.62 0 12 5.38 12 12zM4 16c0-2.95 1.07-5.65 2.85-7.74l16.89 16.9A11.93 11.93 0 0 1 16 28C9.38 28 4 22.62 4 16z"/>
</symbol><symbol viewBox="0 0 32 32" fill-rule="evenodd" id="ki-cast" xmlns="http://www.w3.org/2000/svg">
  <path d="M25 7H7a2 2 0 0 0-2 2v3h2V9h18v14h-7v2h7a2 2 0 0 0 2-2V9a2 2 0 0 0-2-2zM5 22v3h3a3 3 0 0 0-3-3zm0-4v2a5 5 0 0 1 5 5h2a7 7 0 0 0-7-7zm0-4v2a9 9 0 0 1 9 9h2A11 11 0 0 0 5 14z"/>
</symbol><symbol viewBox="0 0 32 32" fill-rule="evenodd" id="ki-cast-f" xmlns="http://www.w3.org/2000/svg">
  <path d="M5 22v3h3a3 3 0 0 0-3-3zm0-4v2a5 5 0 0 1 5 5h2a7 7 0 0 0-7-7zm18-7H9v1.63A13.03 13.03 0 0 1 17.37 21H23V11zM5 14v2a9 9 0 0 1 9 9h2A11 11 0 0 0 5 14zm20-7H7a2 2 0 0 0-2 2v3h2V9h18v14h-7v2h7a2 2 0 0 0 2-2V9a2 2 0 0 0-2-2z"/>
</symbol><symbol viewBox="0 0 32 32" fill-rule="evenodd" id="ki-caution-alert" xmlns="http://www.w3.org/2000/svg">
  <path d="M31 30H1c-.35 0-.68-.19-.86-.5a1 1 0 0 1 0-1L15.11 2.47c.36-.63 1.4-.63 1.76 0L31.87 28.5a1 1 0 0 1 0 1 1.01 1.01 0 0 1-.88.5zM2.74 28h26.5L16 4.98 2.75 28z"/>
  <circle cx="16" cy="24" r="2"/>
  <path d="M16.44 20h-1.05c-.29 0-.36-.22-.39-.5l-.99-6.28a2 2 0 0 1 3.98 0L17 19.5a.56.56 0 0 1-.56.5z"/>
</symbol><symbol viewBox="0 0 32 32" fill-rule="evenodd" id="ki-caution-alert-f" xmlns="http://www.w3.org/2000/svg">
  <path d="M31.87 28.5L16.88 2.46c-.36-.62-1.4-.62-1.76 0L.13 28.5a1 1 0 0 0 .01 1 1 1 0 0 0 .87.5h29.98a1 1 0 0 0 .87-.5 1 1 0 0 0 .01-1zM16 26a2 2 0 1 1 0-4 2 2 0 0 1 0 4zm1.99-12.78L17 19.5a.56.56 0 0 1-.56.51h-1.05c-.29 0-.36-.22-.39-.5l-.99-6.28A2 2 0 0 1 16 11a2 2 0 0 1 2 2l-.01.22z"/>
</symbol><symbol viewBox="0 0 32 32" fill-rule="evenodd" id="ki-caution-circle" xmlns="http://www.w3.org/2000/svg">
  <path d="M14 6h4v12h-4z"/>
  <circle cx="16" cy="22.75" r="2.25"/>
  <path d="M16 2a14 14 0 1 0 0 28 14 14 0 0 0 0-28zm0 26a12.01 12.01 0 1 1 12-12c0 6.62-5.38 12-12 12z"/>
</symbol><symbol viewBox="0 0 32 32" fill-rule="evenodd" id="ki-caution-circle-f" xmlns="http://www.w3.org/2000/svg">
  <path d="M16 2a14 14 0 1 0 0 28 14 14 0 0 0 0-28zm-2 4h4v12h-4V6zm2 19a2.25 2.25 0 1 1 0-4.5 2.25 2.25 0 0 1 0 4.5z"/>
</symbol><symbol viewBox="0 0 32 32" fill-rule="evenodd" id="ki-chat" xmlns="http://www.w3.org/2000/svg">
  <circle cx="16" cy="14" r="2"/>
  <circle cx="23" cy="14" r="2"/>
  <circle cx="9" cy="14" r="2"/>
  <path d="M16 29a1 1 0 0 1-.83-.45L11.47 23H3a1 1 0 0 1-1-1V6a1 1 0 0 1 1-1h26a1 1 0 0 1 1 1v16a1 1 0 0 1-1 1h-8.46l-3.7 5.55A1 1 0 0 1 16 29zM4 21h8a1 1 0 0 1 .83.44L16 26.2l3.17-4.76A1 1 0 0 1 20 21h8V7H4z"/>
</symbol><symbol viewBox="0 0 32 32" fill-rule="evenodd" id="ki-checkmark" xmlns="http://www.w3.org/2000/svg">
  <path d="M26 7L12 21l-6-6-2 2 8 8L28 9z"/>
</symbol><symbol viewBox="0 0 32 32" fill-rule="evenodd" id="ki-checkmark-circle" xmlns="http://www.w3.org/2000/svg">
  <path d="M16 4A12 12 0 1 1 4 16 12.01 12.01 0 0 1 16 4m0-2a14 14 0 1 0 14 14A14 14 0 0 0 16 2z"/>
  <path d="M13.02 22l-4.69-4.68 1.4-1.41 3.28 3.28 9.25-9.25 1.4 1.4L13.03 22z"/>
</symbol><symbol viewBox="0 0 32 32" fill-rule="evenodd" id="ki-checkmark-circle-f" xmlns="http://www.w3.org/2000/svg">
  <path d="M16 2a14 14 0 1 0 0 28 14 14 0 0 0 0-28zM8 18l2-2 3 3 9-9 2 2-11 11-5-5z"/>
</symbol><symbol viewBox="0 0 32 32" fill-rule="evenodd" id="ki-chevron-down" xmlns="http://www.w3.org/2000/svg">
  <path d="M28 8L16 20 4 8l-2 2 14 14 14-14z"/>
</symbol><symbol viewBox="0 0 32 32" fill-rule="evenodd" id="ki-chevron-down-circle" xmlns="http://www.w3.org/2000/svg">
  <path d="M22.57 12.29L16 18.86l-6.57-6.57L8 13.7l8 8 8-8z"/>
  <path d="M16 4A12.01 12.01 0 1 1 4 16C4 9.38 9.38 4 16 4m0-2a14 14 0 1 0 0 28 14 14 0 0 0 0-28z"/>
</symbol><symbol viewBox="0 0 32 32" fill-rule="evenodd" id="ki-chevron-down-circle-f" xmlns="http://www.w3.org/2000/svg">
  <path d="M16 2a14 14 0 1 0 0 28 14 14 0 0 0 0-28zm-6 10l6 6 6-6 2 2-8 8-8-8 2-2z"/>
</symbol><symbol viewBox="0 0 32 32" fill-rule="evenodd" id="ki-chevron-left" xmlns="http://www.w3.org/2000/svg">
  <path d="M24 4L12 16l12 12-2 2L8 16 22 2z"/>
</symbol><symbol viewBox="0 0 32 32" fill-rule="evenodd" id="ki-chevron-left-circle" xmlns="http://www.w3.org/2000/svg">
  <path d="M19.71 22.57L13.14 16l6.57-6.57L18.3 8l-8 8 8 8z"/>
  <path d="M16 4A12.01 12.01 0 1 1 4 16C4 9.38 9.38 4 16 4m0-2a14 14 0 1 0 0 28 14 14 0 0 0 0-28z"/>
</symbol><symbol viewBox="0 0 32 32" fill-rule="evenodd" id="ki-chevron-left-circle-f" xmlns="http://www.w3.org/2000/svg">
  <path d="M30 16a14 14 0 1 0-28 0 14 14 0 0 0 28 0zm-10-6l-6 6 6 6-2 2-8-8 8-8 2 2z"/>
</symbol><symbol viewBox="0 0 32 32" fill-rule="evenodd" id="ki-chevron-right" xmlns="http://www.w3.org/2000/svg">
  <path d="M8 28l12-12L8 4l2-2 14 14-14 14z"/>
</symbol><symbol viewBox="0 0 32 32" fill-rule="evenodd" id="ki-chevron-right-circle" xmlns="http://www.w3.org/2000/svg">
  <path d="M12.29 9.43L18.86 16l-6.57 6.57L13.7 24l8-8-8-8z"/>
  <path d="M16 4A12.01 12.01 0 1 1 4 16C4 9.38 9.38 4 16 4m0-2a14 14 0 1 0 0 28 14 14 0 0 0 0-28z"/>
</symbol><symbol viewBox="0 0 32 32" fill-rule="evenodd" id="ki-chevron-right-circle-f" xmlns="http://www.w3.org/2000/svg">
  <path d="M2 16a14 14 0 1 0 28 0 14 14 0 0 0-28 0zm10 6l6-6-6-6 2-2 8 8-8 8-2-2z"/>
</symbol><symbol viewBox="0 0 32 32" fill-rule="evenodd" id="ki-chevron-up" xmlns="http://www.w3.org/2000/svg">
  <path d="M28 24L16 12 4 24l-2-2L16 8l14 14z"/>
</symbol><symbol viewBox="0 0 32 32" fill-rule="evenodd" id="ki-chevron-up-circle" xmlns="http://www.w3.org/2000/svg">
  <path d="M9.43 19.71L16 13.14l6.57 6.57L24 18.3l-8-8-8 8z"/>
  <path d="M16 4A12.01 12.01 0 1 1 4 16C4 9.38 9.38 4 16 4m0-2a14 14 0 1 0 0 28 14 14 0 0 0 0-28z"/>
</symbol><symbol viewBox="0 0 32 32" fill-rule="evenodd" id="ki-chevron-up-circle-f" xmlns="http://www.w3.org/2000/svg">
  <path d="M16 30a14 14 0 1 0 0-28 14 14 0 0 0 0 28zm6-10l-6-6-6 6-2-2 8-8 8 8-2 2z"/>
</symbol><symbol viewBox="0 0 32 32" fill-rule="evenodd" id="ki-cloud" xmlns="http://www.w3.org/2000/svg">
  <path d="M15 6a8 8 0 0 1 6.96 4.06l.5.88.99.12A7.52 7.52 0 0 1 30 18.5a7.46 7.46 0 0 1-2.41 5.5H6a4 4 0 0 1-.67-7.94L7 15.8V14a8 8 0 0 1 8-8m0-2A10 10 0 0 0 5 14v.09A6 6 0 0 0 6 26h22.32A9.5 9.5 0 0 0 23.7 9.08 9.99 9.99 0 0 0 15 4z"/>
</symbol><symbol viewBox="0 0 32 32" fill-rule="evenodd" id="ki-cloud-f" xmlns="http://www.w3.org/2000/svg">
  <path d="M32 18.5a9.5 9.5 0 0 1-3.68 7.5H6a6 6 0 0 1-1-11.91V14a10 10 0 0 1 18.7-4.92A9.5 9.5 0 0 1 32 18.5z"/>
</symbol><symbol viewBox="0 0 32 32" fill-rule="evenodd" id="ki-collapse" xmlns="http://www.w3.org/2000/svg">
  <path d="M1 25l6 6 4-4 5 5V16H0l5 5-4 4zm13-7v9l-3-3-4 4-3-3 4-4-3-3h9zm18-2l-5-5 4-4-6-6-4 4-5-5v16h16zM18 5l3 3 4-4 3 3-4 4 3 3h-9V5z"/>
</symbol><symbol viewBox="0 0 32 32" fill-rule="evenodd" id="ki-collapse-f" xmlns="http://www.w3.org/2000/svg">
  <path d="M1 25l6 6 4-4 5 5V16H0l5 5-4 4zm31-9l-5-5 4-4-6-6-4 4-5-5v16h16z"/>
</symbol><symbol viewBox="0 0 32 32" fill-rule="evenodd" id="ki-compose" xmlns="http://www.w3.org/2000/svg">
  <path d="M11 21l4.9-.7L30 6.2 25.8 2 11.7 16z"/>
  <path d="M26 15.9V26H6V6h10.1l2-2H4v24h24V13.9l-2 2z"/>
</symbol><symbol viewBox="0 0 32 32" fill-rule="evenodd" id="ki-credit-card" xmlns="http://www.w3.org/2000/svg">
  <path d="M29 6H3a1 1 0 0 0-1 1v18a1 1 0 0 0 1 1h26a1 1 0 0 0 1-1V7a1 1 0 0 0-1-1zm-1 18H4V14h24v10zM4 11V8h24v3H4z"/>
  <path d="M19 20h7v2h-7z"/>
</symbol><symbol viewBox="0 0 32 32" fill-rule="evenodd" id="ki-credit-card-error" xmlns="http://www.w3.org/2000/svg">
  <path d="M16 17a5 5 0 1 0 0 10 5 5 0 0 0 0-10zm0 4.27l1.82-1.81.76.75-1.8 1.8 1.8 1.8-.76.77-1.8-1.8-.02-.02-.02.01-1.8 1.8-.76-.75 1.8-1.8-1.8-1.8.76-.77L16 21.27z"/>
  <path d="M28 11v9.15c0 .46-.38.85-.85.85h-4.23a6.99 6.99 0 0 0-13.84 0H4.85a.86.86 0 0 1-.85-.85V11h24zm-.85-6H4.85a.84.84 0 0 0-.85.85V9h24V5.85a.84.84 0 0 0-.85-.85z"/>
</symbol><symbol viewBox="0 0 32 32" fill-rule="evenodd" id="ki-credit-card-f" xmlns="http://www.w3.org/2000/svg">
  <path d="M29 6H3a1 1 0 0 0-1 1v4h28V7a1 1 0 0 0-1-1zM2 14v11a1 1 0 0 0 1 1h26a1 1 0 0 0 1-1V14H2zm24 8h-7v-2h7v2z"/>
</symbol><symbol viewBox="0 0 32 32" fill-rule="evenodd" id="ki-dashboard" xmlns="http://www.w3.org/2000/svg">
  <path d="M25.9 7.1l-1.42 1.42a9.46 9.46 0 0 0-.74-.68l1.42-1.42c.25.21.5.44.74.68z"/>
  <path d="M27.71 6.7l-11 11a1 1 0 0 1-1.42 0 1 1 0 0 1 0-1.41l11-11a1 1 0 0 1 1.42 0 1 1 0 0 1 0 1.41z"/>
  <path d="M30 17c0 4.18-1.84 8.1-5.06 10.77l-.28.23H7.34l-.28-.23A13.94 13.94 0 0 1 2 17 14.02 14.02 0 0 1 25.16 6.42l-1.42 1.42A11.85 11.85 0 0 0 17 5.05V7c0 .55-.45 1-1 1s-1-.45-1-1V5.04A12.02 12.02 0 0 0 4.04 16H6a1 1 0 0 1 1 1 1 1 0 0 1-1 1H4.05a11.93 11.93 0 0 0 4.02 8h15.86a11.93 11.93 0 0 0 4.02-8H26a1 1 0 0 1-1-1 1 1 0 0 1 1-1h1.95a11.8 11.8 0 0 0-1.34-4.61l1.47-1.47A13.88 13.88 0 0 1 30 17z"/>
</symbol><symbol viewBox="0 0 32 32" fill-rule="evenodd" id="ki-desktop" xmlns="http://www.w3.org/2000/svg">
  <path d="M32 25V3H0v22h12v2H9v2h14v-2h-3v-2h12zM2 21V5h28v16H2z"/>
</symbol><symbol viewBox="0 0 32 32" fill-rule="evenodd" id="ki-document" xmlns="http://www.w3.org/2000/svg">
  <path d="M6 7v21h18V7H6zm16 16H8v-2h14v2zm0-5H8v-2h14v2zm0-5H8v-2h14v2zm5-9v22h-2V6H8V4h19z"/>
</symbol><symbol viewBox="0 0 32 32" fill-rule="evenodd" id="ki-domain" xmlns="http://www.w3.org/2000/svg">
  <path d="M8.46 14.31c.24 0 .59.05.83.15.24.1.71.27.71.51V13.1c0-.08-.57-.15-.77-.2a3.26 3.26 0 0 0-2.07.18c-.42.17-.78.4-1.06.68-.28.33-.49.67-.63 1.03s-.21.74-.21 1.15a2.72 2.72 0 0 0 .96 2.23c.28.28.62.5 1 .63a3.8 3.8 0 0 0 2.01.15c.2-.04.77-.12.77-.24v-1.8c0 .2-.46.33-.68.41-.22.08-.53.12-.81.12-.48 0-.89-.14-1.17-.42a1.44 1.44 0 0 1-.44-1.08c0-.45.13-.83.42-1.15.28-.32.66-.48 1.14-.48zm8.69-.73a3.32 3.32 0 0 0-2.24-.84c-.8 0-1.54.28-2.2.84-.66.57-1 1.3-1 2.17 0 .97.31 1.75.91 2.33.6.58 1.37.87 2.29.87.93 0 1.69-.3 2.3-.93.6-.63.9-1.38.9-2.27 0-.88-.32-1.6-.96-2.17zm-1.09 3.47c-.32.34-.7.51-1.15.51-.44 0-.82-.17-1.14-.5a1.7 1.7 0 0 1-.49-1.25c0-.36.16-.7.49-1.02.32-.32.7-.48 1.14-.48.45 0 .83.16 1.15.48s.48.66.48 1.02c0 .5-.16.9-.48 1.24zM26.14 13h-1.51l-1.27 3.2-1.14-3.2h-1.51l-1.03 6h1.51l.54-3.38L23.06 19h.6l1.45-3.38.36 3.38h1.57l-.9-6zM8.46 14.31c.24 0 .59.05.83.15.24.1.71.27.71.51V13.1c0-.08-.57-.15-.77-.2a3.26 3.26 0 0 0-2.07.18c-.42.17-.78.4-1.06.68-.28.33-.49.67-.63 1.03s-.21.74-.21 1.15a2.72 2.72 0 0 0 .96 2.23c.28.28.62.5 1 .63a3.8 3.8 0 0 0 2.01.15c.2-.04.77-.12.77-.24v-1.8c0 .2-.46.33-.68.41-.22.08-.53.12-.81.12-.48 0-.89-.14-1.17-.42a1.44 1.44 0 0 1-.44-1.08c0-.45.13-.83.42-1.15.28-.32.66-.48 1.14-.48zm8.69-.73a3.32 3.32 0 0 0-2.24-.84c-.8 0-1.54.28-2.2.84-.66.57-1 1.3-1 2.17 0 .97.31 1.75.91 2.33.6.58 1.37.87 2.29.87.93 0 1.69-.3 2.3-.93.6-.63.9-1.38.9-2.27 0-.88-.32-1.6-.96-2.17zm-1.09 3.47c-.32.34-.7.51-1.15.51-.44 0-.82-.17-1.14-.5a1.7 1.7 0 0 1-.49-1.25c0-.36.16-.7.49-1.02.32-.32.7-.48 1.14-.48.45 0 .83.16 1.15.48s.48.66.48 1.02c0 .5-.16.9-.48 1.24zM26.14 13h-1.51l-1.27 3.2-1.14-3.2h-1.51l-1.03 6h1.51l.54-3.38L23.06 19h.6l1.45-3.38.36 3.38h1.57l-.9-6zM8.46 14.31c.24 0 .59.05.83.15.24.1.71.27.71.51V13.1c0-.08-.57-.15-.77-.2a3.26 3.26 0 0 0-2.07.18c-.42.17-.78.4-1.06.68-.28.33-.49.67-.63 1.03s-.21.74-.21 1.15a2.72 2.72 0 0 0 .96 2.23c.28.28.62.5 1 .63a3.8 3.8 0 0 0 2.01.15c.2-.04.77-.12.77-.24v-1.8c0 .2-.46.33-.68.41-.22.08-.53.12-.81.12-.48 0-.89-.14-1.17-.42a1.44 1.44 0 0 1-.44-1.08c0-.45.13-.83.42-1.15.28-.32.66-.48 1.14-.48zm8.69-.73a3.32 3.32 0 0 0-2.24-.84c-.8 0-1.54.28-2.2.84-.66.57-1 1.3-1 2.17 0 .97.31 1.75.91 2.33.6.58 1.37.87 2.29.87.93 0 1.69-.3 2.3-.93.6-.63.9-1.38.9-2.27 0-.88-.32-1.6-.96-2.17zm-1.09 3.47c-.32.34-.7.51-1.15.51-.44 0-.82-.17-1.14-.5a1.7 1.7 0 0 1-.49-1.25c0-.36.16-.7.49-1.02.32-.32.7-.48 1.14-.48.45 0 .83.16 1.15.48s.48.66.48 1.02c0 .5-.16.9-.48 1.24zM26.14 13h-1.51l-1.27 3.2-1.14-3.2h-1.51l-1.03 6h1.51l.54-3.38L23.06 19h.6l1.45-3.38.36 3.38h1.57l-.9-6z"/>
  <path d="M29.79 10C27.51 4.65 22.26 1 16 1a14.8 14.8 0 0 0-13.79 9H0v12h2.21c2.27 5.34 7.52 9 13.79 9 6.26 0 11.51-3.66 13.79-9H32V10h-2.21zm-2.46 0h-3.95l-.26-.79c1.07-.48 1.96-.98 2.69-1.46.6.71 1.1 1.45 1.52 2.25zm-3.09-3.85c-.56.37-1.2.72-1.88 1.03a21.63 21.63 0 0 0-1.58-3.07c1.24.47 2.4 1.15 3.46 2.04zM17 3.25l.66.07a25.5 25.5 0 0 1 2.66 4.66A16.4 16.4 0 0 1 17 8.7V3.25zm-2.64.07l.64-.07V8.7c-1-.1-2.25-.35-3.35-.72a26.17 26.17 0 0 1 2.71-4.66zm-3.15.8c-.58.94-1.12 2-1.57 3.06a13.9 13.9 0 0 1-1.88-1.03 12.33 12.33 0 0 1 3.45-2.03zM6.19 7.75c.73.48 1.61.98 2.69 1.46l-.26.8H4.66c.42-.8.93-1.55 1.53-2.26zM4.67 22H8.6c.09.27.17.53.28.81-1.08.48-1.96.93-2.69 1.41-.59-.7-1.1-1.44-1.52-2.22zm3.08 3.83c.58-.38 1.22-.74 1.92-1.05.43 1.08.96 2.13 1.55 3.08a11.78 11.78 0 0 1-3.47-2.03zM15 28.74l-.67-.07a23.05 23.05 0 0 1-2.62-4.7c1.08-.34 2.29-.57 3.29-.68v5.45zm2.64-.07l-.64.07V23.3c1 .11 2.23.34 3.31.68a22.92 22.92 0 0 1-2.67 4.7zm3.13-.8c.6-.96 1.13-2 1.56-3.09a14 14 0 0 1 1.92 1.05 11.83 11.83 0 0 1-3.48 2.03zm5.04-3.65c-.73-.48-1.61-.93-2.69-1.4l.28-.82h3.92a12.8 12.8 0 0 1-1.51 2.22zM30 20H2v-8h28v8z"/>
</symbol><symbol viewBox="0 0 32 32" fill-rule="evenodd" id="ki-down" xmlns="http://www.w3.org/2000/svg">
  <path d="M7 16h5V6h8v10h5l-9 10z"/>
</symbol><symbol viewBox="0 0 32 32" fill-rule="evenodd" id="ki-download" xmlns="http://www.w3.org/2000/svg">
  <path d="M28 11h-8V0h-8v11H4l12 15 12-15zM4 29h24v3H4z"/>
</symbol><symbol viewBox="0 0 32 32" fill-rule="evenodd" id="ki-drag-drop" xmlns="http://www.w3.org/2000/svg">
  <path d="M9 19l7 6.86L22.94 19 24 20l-8 8-8-8 1-1zm14-6l-7-6.86L9.06 13 8 12l8-8 8 8-1 1z"/>
</symbol><symbol viewBox="0 0 32 32" fill-rule="evenodd" id="ki-dropdown" xmlns="http://www.w3.org/2000/svg">
  <path d="M9 19l7 6.86L22.94 19 24 20l-8 8-8-8 1-1zm14-6l-7-6.86L9.06 13 8 12l8-8 8 8-1 1z"/>
</symbol><symbol viewBox="0 0 32 32" fill-rule="evenodd" id="ki-dvr-nav" xmlns="http://www.w3.org/2000/svg">
  <path d="M27.54 12.7A12.01 12.01 0 1 1 4 16a12.01 12.01 0 0 1 20.36-8.6l1.42-1.42A14 14 0 0 0 16 2a14 14 0 1 0 13.12 9.12l-1.58 1.58z"/>
  <path d="M10.7 13.3l-1.4 1.4 6.7 6.71 15-15L29.59 5 16 18.59z"/>
</symbol><symbol viewBox="0 0 32 32" fill-rule="evenodd" id="ki-edit" xmlns="http://www.w3.org/2000/svg">
  <path d="M23.13 1.87L5.7 19.3 4 28l8.77-1.63L30.2 8.94l-7.07-7.07zM11.8 24.5l-3.53.71-1.45-1.45.73-3.5L23.13 4.7l4.24 4.24L11.81 24.5z"/>
</symbol><symbol viewBox="0 0 32 32" fill-rule="evenodd" id="ki-edit-circle" xmlns="http://www.w3.org/2000/svg">
  <path d="M10.45 18.95l-.46 2.2.91.91 2.23-.45-2.67-2.67z"/>
  <path d="M16 2a14 14 0 1 0 0 28 14 14 0 0 0 0-28zm-2.27 20.79l-5.52 1.02 1.07-5.47L20.24 7.38l4.45 4.45-10.96 10.96z"/>
</symbol><symbol viewBox="0 0 32 32" fill-rule="evenodd" id="ki-edit-f" xmlns="http://www.w3.org/2000/svg">
  <path d="M23.13 1.87L5.7 19.3 4 28l8.77-1.63L30.2 8.94l-7.07-7.07zM8.28 25.21l-1.45-1.45.73-3.5h.01l4.24 4.24-3.53.7z"/>
</symbol><symbol viewBox="0 0 32 32" fill-rule="evenodd" id="ki-equipment" xmlns="http://www.w3.org/2000/svg">
  <path d="M28 5H4a1 1 0 0 0-1 1v15a1 1 0 0 0 1 1h7.23l-2.09 3.48A1 1 0 0 0 10 27h12a1 1 0 0 0 .86-1.51L20.76 22H28a1 1 0 0 0 1-1V6a1 1 0 0 0-1-1zm-7.77 20h-8.46l1.8-3h4.86l1.8 3zM27 20H5V7h22v13z"/>
</symbol><symbol viewBox="0 0 32 32" fill-rule="evenodd" id="ki-expand" xmlns="http://www.w3.org/2000/svg">
  <path d="M17 21l-6-6-4 4-5-5v16h16l-5-5 4-4zM4 28v-9l3 3 4-4 3 3-4 4 3 3H4zM14 2l5 5-4 4 6 6 4-4 5 5V2H14zm14 11l-3-3-4 4-3-3 4-4-3-3h9v9z"/>
</symbol><symbol viewBox="0 0 32 32" fill-rule="evenodd" id="ki-expand-f" xmlns="http://www.w3.org/2000/svg">
  <path d="M17 21l-6-6-4 4-5-5v16h16l-5-5 4-4zM14 2l5 5-4 4 6 6 4-4 5 5V2H14z"/>
</symbol><symbol viewBox="0 0 32 32" fill-rule="evenodd" id="ki-eye" xmlns="http://www.w3.org/2000/svg">
  <path d="M16 8.41c1.92 0 4.03.6 5.72 1.5 3.61 2 5.98 4.51 6.93 5.68L29 16c-.01.03-.14.16-.35.42-.36.47-1.55 1.7-2.5 2.57-2.74 2.49-6.36 4.59-10.15 4.59a12.5 12.5 0 0 1-5.72-1.51c-1.8-.98-3.28-2.01-4.43-3.1-1.16-1.07-2-1.93-2.5-2.55L3 16.01l.35-.44a24.86 24.86 0 0 1 6.94-5.66 14.05 14.05 0 0 1 2.74-1.07A10.66 10.66 0 0 1 16 8.4zm4.26 7.73a4.26 4.26 0 0 0-8.52 0A4.27 4.27 0 0 0 16 20.4a4.25 4.25 0 0 0 4.26-4.26zm-2.42 0a1.84 1.84 0 1 1-3.68 0 1.84 1.84 0 0 1 3.68 0z"/>
</symbol><symbol viewBox="0 0 32 32" fill-rule="evenodd" id="ki-eye-cross" xmlns="http://www.w3.org/2000/svg">
  <path d="M20.01 22.83l-.04.02a11.84 11.84 0 0 1-2.97.68 2.96 2.96 0 0 1-.42.03l-.58.02a6.8 6.8 0 0 1-.78-.04 5.38 5.38 0 0 1-.69-.07 6.76 6.76 0 0 1-.74-.13 8.39 8.39 0 0 1-.64-.15 5.26 5.26 0 0 1-.53-.15.08.08 0 0 1-.05-.02q-.27-.07-.54-.18l-.54-.2a9.54 9.54 0 0 1-1.21-.57 19.15 19.15 0 0 1-4.43-3.09 25.33 25.33 0 0 1-2.5-2.55L3 16a4.79 4.79 0 0 1 .35-.43l.52-.6.31-.33.1-.1.28-.29a25.55 25.55 0 0 1 3-2.6l.41-.32.32-.22 3.67 3.67-.02.07a.3.3 0 0 0-.02.1 1.16 1.16 0 0 0-.08.31 1.78 1.78 0 0 0-.07.4 3.9 3.9 0 0 0-.03.48 4.26 4.26 0 0 0 2.41 3.83 1.59 1.59 0 0 0 .23.1 1.65 1.65 0 0 0 .31.12.85.85 0 0 0 .17.05 2.13 2.13 0 0 0 .27.07 2.32 2.32 0 0 0 .38.06 4.02 4.02 0 0 0 .98 0 3.63 3.63 0 0 0 .82-.18.08.08 0 0 0 .04-.02zM29 16l-.35.43a29.3 29.3 0 0 1-2.5 2.56c-.22.2-.44.4-.67.58l-.4.33a21.14 21.14 0 0 1-1.35 1l-3.63-3.63a3.86 3.86 0 0 0 .16-1.13 3.9 3.9 0 0 0-.03-.49 3.61 3.61 0 0 0-.18-.82 2.79 2.79 0 0 0-.1-.26 2.14 2.14 0 0 0-.12-.28 4.24 4.24 0 0 0-2.18-2.07 4.1 4.1 0 0 0-1.65-.34 3.86 3.86 0 0 0-1.13.16L12 9.17a10.37 10.37 0 0 1 1.03-.34A10.55 10.55 0 0 1 16 8.41a10.75 10.75 0 0 1 1.48.11c.18.02.36.05.55.1a13.63 13.63 0 0 1 1.4.34l.4.13.48.17.22.1a10.78 10.78 0 0 1 1.19.54 23 23 0 0 1 1.56.94 25.07 25.07 0 0 1 4.04 3.3c.1.08.19.18.28.27.45.46.8.86 1.05 1.17zm-5 9a1 1 0 0 1-.7-.3l-16-16a1 1 0 1 1 1.4-1.4l16 16A1 1 0 0 1 24 25z"/>
</symbol><symbol viewBox="0 0 32 32" fill-rule="evenodd" id="ki-facebook" xmlns="http://www.w3.org/2000/svg">
  <path d="M18 28V17h3.85l.87-3H18v-2.58s0-1.4 1-1.42h4V7h-4.18c-1.2 0-2.7.26-3.56 1.1-.85.86-1.26 1.57-1.26 2.77V14h-3v3h3v11h4z"/>
</symbol><symbol viewBox="0 0 32 32" fill-rule="evenodd" id="ki-facebook-f" xmlns="http://www.w3.org/2000/svg">
  <path d="M29 3v26h-7V19h3.82l.79-3H22v-2c0-.48.46-1 1.07-1H27v-3h-3.93c-1.08 0-2.3.23-3.07 1s-1 1.42-1 2.5V16h-3v3h3v10H3V3h26z"/>
</symbol><symbol viewBox="0 0 32 32" fill-rule="evenodd" id="ki-fast-forward" xmlns="http://www.w3.org/2000/svg">
  <path d="M10 10.53L19.11 16 10 21.47V10.53M8 25l15-9L8 7v18z"/>
</symbol><symbol viewBox="0 0 32 32" fill-rule="evenodd" id="ki-fast-forward-f" xmlns="http://www.w3.org/2000/svg">
  <path d="M8 25l15-9L8 7v18z"/>
</symbol><symbol viewBox="0 0 32 32" fill-rule="evenodd" id="ki-filter" xmlns="http://www.w3.org/2000/svg">
  <path d="M3 3l11 20.13V29h2v-8L7 5h18l-9 16v8h2v-5.89L29 3z"/>
</symbol><symbol viewBox="0 0 32 32" fill-rule="evenodd" id="ki-filter-f" xmlns="http://www.w3.org/2000/svg">
  <path d="M3 3l11 20.13V29h4v-5.89L29 3z"/>
</symbol><symbol viewBox="0 0 32 32" fill-rule="evenodd" id="ki-folder" xmlns="http://www.w3.org/2000/svg">
  <path d="M30.79 12.39a.98.98 0 0 0-.8-.39h-2V7a1 1 0 0 0-1-1H15.54l-1.7-2.56A.99.99 0 0 0 13 3H2a1 1 0 0 0-1 1v23.99c0 .16.04.33.12.47a1.29 1.29 0 0 0 .25.31c.06.05.12.09.19.12A.9.9 0 0 0 2 29h24c.45 0 .85-.31.97-.75l4-15a.98.98 0 0 0-.18-.86zM2.99 5h9.47l1.7 2.55A1 1 0 0 0 15 8h11v4H6a1 1 0 0 0-.97.74L3 20.35V5zm22.24 22H3.3l3.47-13H28.7l-3.47 13z"/>
</symbol><symbol viewBox="0 0 32 32" fill-rule="evenodd" id="ki-full-screen" xmlns="http://www.w3.org/2000/svg">
  <path d="M5 14H3V3h11v2H5zm22 0h2V3H18v2h9zm0 4h2v11H18v-2h9zM5 18H3v11h11v-2H5z"/>
</symbol><symbol viewBox="0 0 32 32" fill-rule="evenodd" id="ki-full-screen-return" xmlns="http://www.w3.org/2000/svg">
  <path d="M12 3h2v11H3v-2h9zm17 9v2H18V3h2v9zm-9 17h-2V18h11v2h-9zm-8 0h2V18H3v2h9z"/>
</symbol><symbol viewBox="0 0 32 32" fill-rule="evenodd" id="ki-grid" xmlns="http://www.w3.org/2000/svg">
  <path d="M11.8 5.2v6.6H5.2V5.2h6.6M14 3H3v11h11V3zm12.8 2.2v6.6h-6.6V5.2h6.6M29 3H18v11h11V3zM11.8 20.2v6.6H5.2v-6.6h6.6M14 18H3v11h11V18zm12.8 2.2v6.6h-6.6v-6.6h6.6M29 18H18v11h11V18z"/>
</symbol><symbol viewBox="0 0 32 32" fill-rule="evenodd" id="ki-grid-f" xmlns="http://www.w3.org/2000/svg">
  <path d="M3 3h11v11H3zm15 0h11v11H18zM3 18h11v11H3zm15 0h11v11H18z"/>
</symbol><symbol viewBox="0 0 32 32" fill-rule="evenodd" id="ki-guide-nav" xmlns="http://www.w3.org/2000/svg">
  <path d="M32 5V3H0v2h24v6H0v2h6v6H0v2h15v6H0v2h32v-2H17v-6h15v-2H8v-6h24v-2h-6V5z"/>
</symbol><symbol viewBox="0 0 32 32" fill-rule="evenodd" id="ki-heart" xmlns="http://www.w3.org/2000/svg">
  <path d="M23.25 4c.9 0 1.78.18 2.6.54A6.73 6.73 0 0 1 28 6.04a7.05 7.05 0 0 1 1.46 2.25c.36.88.54 1.8.54 2.77 0 1.35-.22 2.6-.65 3.8-.4 1.09-1 2.15-1.8 3.23-1.55 2.07-3.7 3.96-6.18 6.14-1.74 1.52-3.53 3.1-5.37 4.95a106.2 106.2 0 0 0-5.37-4.95C8.15 22.04 6 20.16 4.45 18.09a12.6 12.6 0 0 1-1.8-3.24 10.9 10.9 0 0 1-.65-3.8c0-.95.18-1.89.54-2.76A7.06 7.06 0 0 1 4 6.04a6.73 6.73 0 0 1 2.15-1.5A6.46 6.46 0 0 1 8.75 4c.9 0 1.78.18 2.6.54a6.73 6.73 0 0 1 2.15 1.5 7 7 0 0 1 .83 1.03L16 9.62l1.67-2.55a7.06 7.06 0 0 1 .82-1.03 6.7 6.7 0 0 1 2.15-1.5 6.45 6.45 0 0 1 2.6-.54m0-2c-1.17 0-2.32.24-3.4.71a8.7 8.7 0 0 0-2.78 1.94A9.09 9.09 0 0 0 16 5.97a8.98 8.98 0 0 0-1.06-1.32 8.73 8.73 0 0 0-2.78-1.94 8.46 8.46 0 0 0-6.81 0 8.72 8.72 0 0 0-2.79 1.94A9.02 9.02 0 0 0 .7 7.53 9.26 9.26 0 0 0 0 11.06c0 1.59.25 3.05.77 4.48.47 1.28 1.15 2.5 2.08 3.75 1.68 2.23 3.9 4.18 6.46 6.44 1.82 1.6 3.7 3.26 5.63 5.22L16 32l1.06-1.05a99.1 99.1 0 0 1 5.63-5.22c2.57-2.26 4.78-4.2 6.46-6.44a14.55 14.55 0 0 0 2.08-3.75c.52-1.42.77-2.9.77-4.48a9.3 9.3 0 0 0-.69-3.53 9.05 9.05 0 0 0-1.87-2.88 8.73 8.73 0 0 0-2.79-1.94 8.47 8.47 0 0 0-3.4-.71z"/>
</symbol><symbol viewBox="0 0 32 32" fill-rule="evenodd" id="ki-heart-f" xmlns="http://www.w3.org/2000/svg">
  <path d="M23.25 2a8.45 8.45 0 0 0-3.41.71 8.7 8.7 0 0 0-2.78 1.94A9.09 9.09 0 0 0 16 5.97a8.98 8.98 0 0 0-1.06-1.32 8.73 8.73 0 0 0-2.78-1.94 8.44 8.44 0 0 0-6.81 0 8.72 8.72 0 0 0-2.79 1.94A9.02 9.02 0 0 0 .7 7.53 9.26 9.26 0 0 0 0 11.06c0 1.59.25 3.05.77 4.48.47 1.28 1.15 2.5 2.08 3.75 1.68 2.23 3.9 4.18 6.46 6.44 1.82 1.6 3.7 3.26 5.63 5.22L16 32l1.06-1.05a99.1 99.1 0 0 1 5.63-5.22c2.57-2.26 4.78-4.2 6.46-6.44a14.55 14.55 0 0 0 2.08-3.75c.52-1.42.77-2.9.77-4.48a9.3 9.3 0 0 0-.69-3.53 9.05 9.05 0 0 0-1.87-2.88 8.73 8.73 0 0 0-2.79-1.94 8.45 8.45 0 0 0-3.4-.71z"/>
</symbol><symbol viewBox="0 0 32 32" fill-rule="evenodd" id="ki-home" xmlns="http://www.w3.org/2000/svg">
  <path d="M26 12.67V5h-4v3.4L16 2 1 18l2 2 2-2v12h9v-9h4v9h9V18l2 2 2-2-5-5.33zM25 28h-5v-9h-8v9H7V16l9-10 9 10v12z"/>
</symbol><symbol viewBox="0 0 32 32" fill-rule="evenodd" id="ki-home-f" xmlns="http://www.w3.org/2000/svg">
  <path d="M31 18l-2 2-2-2v12h-8v-9h-6v9H5V18l-2 2-2-2L16 2l6 6.4V5h4v7.67z"/>
</symbol><symbol viewBox="0 0 32 32" fill-rule="evenodd" id="ki-hosting" xmlns="http://www.w3.org/2000/svg">
  <path d="M6 6h3v2H6zm5 16h15v2H11zm0-16h15v2H11zM6 22h3v2H6z"/>
  <path d="M2 2v26h4v2h3v-2h14v2h3v-2h4V2H2zm26 24H4v-6h24v6zm0-8H4v-6h24v6zM4 10V4h24v6H4z"/>
  <path d="M11 14h15v2H11zm-5 0h3v2H6z"/>
</symbol><symbol viewBox="0 0 32 32" fill-rule="evenodd" id="ki-hosting-f" xmlns="http://www.w3.org/2000/svg">
  <path d="M2 2v26h4v2h3v-2h14v2h3v-2h4V2H2zm4 6V6h3v2H6zm20 0H11V6h15v2zM6 16v-2h3v2H6zm20 0H11v-2h15v2zM6 24v-2h3v2H6zm20 0H11v-2h15v2z"/>
</symbol><symbol viewBox="0 0 32 32" fill-rule="evenodd" id="ki-info-circle" xmlns="http://www.w3.org/2000/svg">
  <path d="M14 13h4v12h-4z"/>
  <circle cx="16" cy="8.5" r="2.25"/>
  <path d="M16 4A12.01 12.01 0 1 1 4 16C4 9.38 9.38 4 16 4m0-2a14 14 0 1 0 0 28 14 14 0 0 0 0-28z"/>
</symbol><symbol viewBox="0 0 32 32" fill-rule="evenodd" id="ki-info-circle-f" xmlns="http://www.w3.org/2000/svg">
  <path d="M16 2a14 14 0 1 0 0 28 14 14 0 0 0 0-28zm2 23h-4V13h4v12zm-2-14.25a2.26 2.26 0 1 1 2.25-2.25A2.26 2.26 0 0 1 16 10.75z"/>
</symbol><symbol viewBox="0 0 32 32" fill-rule="evenodd" id="ki-instagram" xmlns="http://www.w3.org/2000/svg">
  <path d="M16 3c-3.53 0-3.97.01-5.36.08a9.55 9.55 0 0 0-3.16.6 6.39 6.39 0 0 0-2.3 1.5 6.39 6.39 0 0 0-1.5 2.3 9.55 9.55 0 0 0-.6 3.16A92.57 92.57 0 0 0 3 16c0 3.53.01 3.97.08 5.36.06 1.38.28 2.33.6 3.16a6.38 6.38 0 0 0 1.5 2.3 6.37 6.37 0 0 0 2.3 1.5c.83.32 1.78.54 3.16.6 1.39.06 1.83.08 5.36.08 3.53 0 3.97-.02 5.36-.08a9.55 9.55 0 0 0 3.16-.6 6.38 6.38 0 0 0 2.3-1.5 6.37 6.37 0 0 0 1.5-2.3c.32-.83.54-1.78.6-3.16.06-1.39.08-1.83.08-5.36 0-3.53-.02-3.97-.08-5.36a9.55 9.55 0 0 0-.6-3.16 6.38 6.38 0 0 0-1.5-2.3 6.37 6.37 0 0 0-2.3-1.5 9.55 9.55 0 0 0-3.16-.6A92.57 92.57 0 0 0 16 3zm0 2.34c3.47 0 3.88.02 5.25.08a7.2 7.2 0 0 1 2.42.45 4.04 4.04 0 0 1 1.5.97c.45.45.73.89.96 1.5.18.45.4 1.14.45 2.4.07 1.38.08 1.79.08 5.26s-.01 3.88-.08 5.25a7.2 7.2 0 0 1-.45 2.42 4.04 4.04 0 0 1-.97 1.5 4.01 4.01 0 0 1-1.5.96 7.2 7.2 0 0 1-2.4.45c-1.38.07-1.79.08-5.26.08s-3.88-.01-5.25-.08a7.2 7.2 0 0 1-2.42-.45 4.04 4.04 0 0 1-1.5-.97 4.01 4.01 0 0 1-.96-1.5 7.2 7.2 0 0 1-.45-2.4c-.06-1.38-.08-1.79-.08-5.26s.01-3.88.08-5.25a7.2 7.2 0 0 1 .45-2.42 4.04 4.04 0 0 1 .97-1.5 4.01 4.01 0 0 1 1.5-.96 7.2 7.2 0 0 1 2.4-.45c1.38-.06 1.79-.08 5.26-.08"/>
  <path d="M16 20.33a4.33 4.33 0 1 1 0-8.66 4.33 4.33 0 0 1 0 8.66zm0-11a6.68 6.68 0 1 0 0 13.35 6.68 6.68 0 0 0 0-13.36zm8.5-.27a1.56 1.56 0 1 1-3.12 0 1.56 1.56 0 0 1 3.12 0z"/>
</symbol><symbol viewBox="0 0 32 32" fill-rule="evenodd" id="ki-internet" xmlns="http://www.w3.org/2000/svg">
  <path d="M27.39 6.23c-.44-.51-.91-.99-1.41-1.43a14.96 14.96 0 0 0-4.41-2.73h-.01a14.55 14.55 0 0 0-4.28-1.01 13.55 13.55 0 0 0-2.56 0c-1.5.12-2.94.47-4.28 1.01h-.01a14.96 14.96 0 0 0-5.82 4.16A14.96 14.96 0 0 0 1 16a14.96 14.96 0 0 0 9.43 13.93h.01c1.34.54 2.78.89 4.28 1.01a13.55 13.55 0 0 0 2.56 0c1.5-.12 2.94-.47 4.28-1.01h.01a14.78 14.78 0 0 0 5.81-4.16 14.96 14.96 0 0 0 .01-19.54zM13.31 3.28a16.05 16.05 0 0 0-3.8 4.12c-.69-.36-1.35-.78-1.97-1.26 1.62-1.4 3.6-2.4 5.77-2.86zm-7.2 4.29c.76.59 1.57 1.12 2.43 1.57A15.95 15.95 0 0 0 7.03 15H3.05c.2-2.82 1.33-5.4 3.06-7.43zM3.05 17h3.98c.13 2.08.66 4.06 1.51 5.85-.86.45-1.67.98-2.42 1.58A12.81 12.81 0 0 1 3.05 17zm4.49 8.85c.62-.47 1.28-.89 1.97-1.25a16.22 16.22 0 0 0 3.8 4.12 12.84 12.84 0 0 1-5.77-2.87zM15 27.48a13.81 13.81 0 0 1-3.62-3.69c1.15-.41 2.36-.67 3.62-.75v4.44zm0-6.45c-1.63.1-3.18.44-4.64 1A13.97 13.97 0 0 1 9.04 17H15v4.03zM15 15H9.04c.12-1.79.59-3.48 1.32-5.03 1.46.55 3.01.9 4.64 1V15zm0-6.04a13.25 13.25 0 0 1-3.62-.75c.96-1.44 2.19-2.7 3.62-3.69v4.44zM28.96 15h-3.99a15.95 15.95 0 0 0-1.51-5.86c.86-.45 1.67-.98 2.43-1.57A12.94 12.94 0 0 1 28.96 15zm-4.5-8.86c-.62.48-1.28.9-1.97 1.26a16.05 16.05 0 0 0-3.8-4.12c2.17.46 4.15 1.46 5.77 2.86zM17 4.52c1.43.99 2.66 2.25 3.62 3.69-1.15.41-2.36.67-3.62.75V4.52zm0 6.45c1.63-.1 3.18-.45 4.64-1 .73 1.55 1.2 3.24 1.32 5.03H17v-4.03zM17 17h5.96a13.97 13.97 0 0 1-1.32 5.03c-1.46-.56-3.01-.9-4.64-1V17zm0 10.48v-4.44c1.26.08 2.47.34 3.62.75A13.81 13.81 0 0 1 17 27.48zm1.69 1.24a16.22 16.22 0 0 0 3.8-4.12c.69.36 1.35.78 1.97 1.25a12.84 12.84 0 0 1-5.77 2.87zm7.19-4.29c-.75-.6-1.56-1.13-2.42-1.58A15.95 15.95 0 0 0 24.97 17h3.99a12.89 12.89 0 0 1-3.08 7.43z"/>
</symbol><symbol viewBox="0 0 32 32" fill-rule="evenodd" id="ki-ivr-chat" xmlns="http://www.w3.org/2000/svg">
  <path d="M14 3.25c-5.88 0-10.47 4.2-10.97 9.88-.3 3.59 1.6 6.88 2.5 8.08 0 .1.1.1 0 .3-.1 1.1-1.6 4.28-1.6 4.38 0 .2 3.5.6 6.68-1.1.1 0 .1-.1.2-.1 0 0 .2 0 .4.1.9.2 1.8.4 2.8.4a10.94 10.94 0 0 0 10.97-10.97A11 11 0 0 0 14 3.25zm.6 19.95c-.2 0-2 .1-3.99-.5h-.2c-.1 0-1.9 1.3-3.79 1.7.2-.3 1.3-3.1 1.3-3.3 0-.2 0-.3-.1-.4a10.2 10.2 0 0 1-2.7-6.97A8.69 8.69 0 0 1 14 5.25a8.94 8.94 0 0 1 8.98 8.97 8.96 8.96 0 0 1-8.38 8.98z"/>
  <path d="M26.77 24.3c3.3-4 2.9-9.98-.9-13.57-.3-.2-.5-.5-.8-.7.4.8.7 3.1.7 3.5.9 1.3 1.3 2.79 1.3 4.38 0 2.1-.9 4.2-2.5 5.79-.1.1-.1.2-.1.3.1.9.7 2.2 1.2 3-1.1 0-2.4-.8-3.29-1.5-.1-.1-.3-.1-.4-.1-.6.3-3.09.9-5.28.3-.2.1-1.8.5-3.5.4 1.2 1.19 5.4 2.49 8.58 1.39 3 1.6 6.29 1.3 6.29 1.1.2-.1-1.6-3.9-1.3-4.3z"/>
</symbol><symbol viewBox="0 0 32 32" fill-rule="evenodd" id="ki-jump-back-ten" xmlns="http://www.w3.org/2000/svg">
  <path d="M29 16a13 13 0 1 1-25.72-2.72L6 16a10.02 10.02 0 0 0 10 10 10.01 10.01 0 0 0 0-20v2l-2.05-1.79L12 4.51l1.43-1.26L16 1v2a13 13 0 0 1 13 13z"/>
  <path d="M12.34 13.7l-1.26.35-.26-1 1.88-.6h.86v7.05h-1.22v-5.8zm2.75 2.32V16c0-2 1.22-3.62 3.06-3.62 1.83 0 3.03 1.6 3.03 3.6V16c0 2-1.22 3.62-3.05 3.62s-3.04-1.6-3.04-3.6zm4.82 0V16c0-1.38-.7-2.5-1.78-2.5s-1.77 1.1-1.77 2.48V16c0 1.38.7 2.5 1.79 2.5 1.08 0 1.76-1.1 1.76-2.48z"/>
</symbol><symbol viewBox="0 0 32 32" fill-rule="evenodd" id="ki-jump-back-thirty" xmlns="http://www.w3.org/2000/svg">
  <path d="M29 16a13 13 0 1 1-25.72-2.72L6 16a10.02 10.02 0 0 0 10 10 10.01 10.01 0 0 0 0-20v2l-2.05-1.79L12 4.51l1.43-1.26L16 1v2a13 13 0 0 1 13 13z"/>
  <path d="M9.8 18.39l.85-.8c.5.59 1.06.92 1.84.92.69 0 1.21-.42 1.21-1.06v-.02c0-.69-.63-1.08-1.6-1.08h-.58l-.2-.77 1.9-2.01h-3.04V12.5h4.63v.92l-1.95 2c1.06.14 2.06.67 2.06 1.97v.02c0 1.29-1 2.2-2.45 2.2A3.32 3.32 0 0 1 9.8 18.4zm6.31-2.37V16c0-2 1.22-3.62 3.06-3.62 1.83 0 3.04 1.6 3.04 3.6V16c0 2-1.22 3.62-3.06 3.62s-3.04-1.6-3.04-3.6zm4.83 0V16c0-1.38-.71-2.5-1.79-2.5s-1.77 1.1-1.77 2.48V16c0 1.38.7 2.5 1.79 2.5s1.77-1.1 1.77-2.48z"/>
</symbol><symbol viewBox="0 0 32 32" fill-rule="evenodd" id="ki-jump-back-twenty" xmlns="http://www.w3.org/2000/svg">
  <path d="M29 16a13 13 0 1 1-26 0 13.57 13.57 0 0 1 .28-2.72L6 16a9.91 9.91 0 0 0 .46 3A10 10 0 1 0 16 6v2l-2.05-1.79L12 4.51l1.43-1.26L16 1v2a13 13 0 0 1 13 13z"/>
  <path d="M9.85 18.53l2.4-2.05c.97-.81 1.32-1.26 1.32-1.89a1.05 1.05 0 0 0-1.13-1.09c-.64 0-1.08.35-1.62 1.05l-.87-.68a2.87 2.87 0 0 1 2.57-1.47 2.1 2.1 0 0 1 2.31 2.1v.01c0 1.1-.58 1.7-1.81 2.7l-1.44 1.2h3.32v1.09H9.85zm6.2-2.51V16c0-2 1.23-3.62 3.06-3.62s3.04 1.6 3.04 3.6V16c0 2-1.21 3.62-3.05 3.62-1.84 0-3.04-1.6-3.04-3.6zm4.83 0V16c0-1.38-.7-2.5-1.79-2.5s-1.76 1.1-1.76 2.48V16c0 1.38.7 2.5 1.79 2.5s1.76-1.1 1.76-2.48z"/>
</symbol><symbol viewBox="0 0 32 32" fill-rule="evenodd" id="ki-jump-forward-ten" xmlns="http://www.w3.org/2000/svg">
  <path d="M3 16a13 13 0 1 0 25.72-2.72L26 16a10.02 10.02 0 0 1-10 10 10.01 10.01 0 0 1 0-20v2l2.05-1.79L20 4.51l-1.43-1.26L16 1v2A13 13 0 0 0 3 16z"/>
  <path d="M12.34 13.7l-1.26.35-.26-1 1.88-.6h.86v7.05h-1.22v-5.8zm2.75 2.32V16c0-2 1.22-3.62 3.06-3.62 1.83 0 3.03 1.6 3.03 3.6V16c0 2-1.22 3.62-3.05 3.62s-3.04-1.6-3.04-3.6zm4.82 0V16c0-1.38-.7-2.5-1.78-2.5s-1.77 1.1-1.77 2.48V16c0 1.38.7 2.5 1.79 2.5 1.08 0 1.76-1.1 1.76-2.48z"/>
</symbol><symbol viewBox="0 0 32 32" fill-rule="evenodd" id="ki-jump-forward-thirty" xmlns="http://www.w3.org/2000/svg">
  <path d="M3 16a13 13 0 1 0 25.72-2.72L26 16a10.02 10.02 0 0 1-10 10 10.01 10.01 0 0 1 0-20v2l2.05-1.79L20 4.51l-1.43-1.26L16 1v2A13 13 0 0 0 3 16z"/>
  <path d="M9.8 18.39l.85-.8c.5.59 1.06.92 1.84.92.69 0 1.21-.42 1.21-1.06v-.02c0-.69-.63-1.08-1.6-1.08h-.58l-.2-.77 1.9-2.01h-3.04V12.5h4.63v.92l-1.95 2c1.06.14 2.06.67 2.06 1.97v.02c0 1.29-1 2.2-2.45 2.2A3.32 3.32 0 0 1 9.8 18.4zm6.31-2.37V16c0-2 1.22-3.62 3.06-3.62 1.83 0 3.04 1.6 3.04 3.6V16c0 2-1.22 3.62-3.06 3.62s-3.04-1.6-3.04-3.6zm4.83 0V16c0-1.38-.71-2.5-1.79-2.5s-1.77 1.1-1.77 2.48V16c0 1.38.7 2.5 1.79 2.5s1.77-1.1 1.77-2.48z"/>
</symbol><symbol fill-rule="evenodd" viewBox="0 0 32 32" id="ki-jump-forward-twenty" xmlns="http://www.w3.org/2000/svg">
  <path d="M3 16a13 13 0 1 0 26 0 13.57 13.57 0 0 0-.28-2.72L26 16a9.91 9.91 0 0 1-.46 3A10 10 0 1 1 16 6v2l2.05-1.79L20 4.51l-1.43-1.26L16 1v2A13 13 0 0 0 3 16z"/>
  <path d="M9.85 18.53l2.4-2.05c.97-.81 1.32-1.26 1.32-1.89a1.05 1.05 0 0 0-1.13-1.09c-.64 0-1.08.35-1.62 1.05l-.87-.68a2.87 2.87 0 0 1 2.57-1.47 2.1 2.1 0 0 1 2.31 2.1v.01c0 1.1-.58 1.7-1.81 2.7l-1.44 1.2h3.32v1.09H9.85zm6.2-2.51V16c0-2 1.23-3.62 3.06-3.62s3.04 1.6 3.04 3.6V16c0 2-1.21 3.62-3.05 3.62-1.84 0-3.04-1.6-3.04-3.6zm4.83 0V16c0-1.38-.7-2.5-1.79-2.5s-1.76 1.1-1.76 2.48V16c0 1.38.7 2.5 1.79 2.5s1.76-1.1 1.76-2.48z"/>
</symbol><symbol viewBox="0 0 32 32" fill-rule="evenodd" id="ki-key" xmlns="http://www.w3.org/2000/svg">
  <path d="M29.02 13.01H13.26A6.96 6.96 0 0 0 0 16a6.97 6.97 0 0 0 6.97 6.97 6.96 6.96 0 0 0 6.29-3.98h3.81l2-2 1.98 2 2-2 1.98 2 2-2 1.99 2L32 16.03v-1l-2.98-2.02zM3.98 18a2 2 0 1 1 0-3.98 2 2 0 0 1 0 3.98z"/>
</symbol><symbol viewBox="0 0 32 32" fill-rule="evenodd" id="ki-laptop" xmlns="http://www.w3.org/2000/svg">
  <path d="M28.98 21V5a1 1 0 0 0-1-1H4.02a1 1 0 0 0-1 1v16L1 24.02V27a1 1 0 0 0 1 1h28a1 1 0 0 0 1-1v-2.98L28.98 21zm-10.53 4.53h-4.9a1 1 0 0 1-1-1.01h6.9a1 1 0 0 1-1 1.01zM26.99 19H5.02V6h21.97v13z"/>
</symbol><symbol viewBox="0 0 32 32" fill-rule="evenodd" id="ki-leaf" xmlns="http://www.w3.org/2000/svg">
  <path d="M16 3c7.17 0 13 5.83 13 13s-5.83 13-13 13S3 23.17 3 16 8.83 3 16 3m0-2a15 15 0 1 0 0 30 15 15 0 0 0 0-30z"/>
  <path d="M11.2 21.74s-.51 1.03-.55 3.5c0 .45-.15.97-.59.97-.52 0-.79-.49-.77-.96.1-2.73.96-4.2.96-4.2l.95.69zm13.28-13.9C17.68 4.69 2.15 10.7 9.96 20.7c.07.1.17.21.3.33.43-1.7 3.66-7.9 7.5-10.06.35-.2.74-.22.75.12 0 .1-.18.29-.22.33-4.6 3.91-6.7 9.32-7.06 10.33a5.83 5.83 0 0 0 6.01.3c1.62-.82 2.83-2.09 3.19-3.61.5-2.14.55-7.71 3.38-9 1.02-.5 1.09-.46 1.19-.91 0 0 0-.46-.52-.67z" clip-rule="evenodd"/>
</symbol><symbol viewBox="0 0 32 32" fill-rule="evenodd" id="ki-leaf-alt" xmlns="http://www.w3.org/2000/svg">
  <path d="M9 22.94a12.93 12.93 0 0 0-.8 4.73c0 .62-.19 1.32-.78 1.32a1.12 1.12 0 0 1-1.05-1.3 18.3 18.3 0 0 1 1.3-5.72zM26.92 4.15a13.66 13.66 0 0 0-2.11-.72 15.21 15.21 0 0 0-2.39-.37 19.25 19.25 0 0 0-2.55-.02 22.17 22.17 0 0 0-2.64.3 23.1 23.1 0 0 0-2.62.63 21.8 21.8 0 0 0-2.51.93 18.82 18.82 0 0 0-2.31 1.21A15.1 15.1 0 0 0 7.77 7.6a11.65 11.65 0 0 0-1.63 1.74A9.14 9.14 0 0 0 5 11.3a7.95 7.95 0 0 0-.57 2.2 8.32 8.32 0 0 0 .1 2.41 10.67 10.67 0 0 0 .86 2.6 19.2 19.2 0 0 0 1.72 2.8 8.32 8.32 0 0 0 .56.66 28.61 28.61 0 0 1 3.4-6.6 22.68 22.68 0 0 1 6.39-6.8 2.45 2.45 0 0 1 .88-.4.44.44 0 0 1 .43.1c.16.21-.05.5-.25.68a34.84 34.84 0 0 0-3.1 3.15 35.33 35.33 0 0 0-4.9 7.36A32.48 32.48 0 0 0 9 22.94a7.88 7.88 0 0 0 8.13.4 7.7 7.7 0 0 0 4.31-4.87c.67-2.9.75-10.43 4.58-12.18l.9-.43a1.91 1.91 0 0 0 .46-.27.75.75 0 0 0 .24-.52 1.04 1.04 0 0 0-.7-.92z"/>
</symbol><symbol viewBox="0 0 32 32" fill-rule="evenodd" id="ki-leaf-cross" xmlns="http://www.w3.org/2000/svg">
  <path d="M11.2 21.74s-.51 1.03-.55 3.5c0 .45-.15.97-.59.97-.52 0-.79-.49-.77-.96.1-2.73.96-4.2.96-4.2l.95.69zm13.28-13.9C17.68 4.69 2.15 10.7 9.96 20.7c.07.1.17.21.3.33.43-1.7 3.66-7.9 7.5-10.06.35-.2.74-.22.75.12 0 .1-.18.29-.22.33-4.6 3.91-6.7 9.32-7.06 10.33a5.83 5.83 0 0 0 6.01.3c1.62-.82 2.83-2.09 3.19-3.61.5-2.14.55-7.71 3.38-9 1.02-.5 1.09-.46 1.19-.91 0 0 0-.46-.52-.67z" clip-rule="evenodd"/>
  <path d="M26.6 5.4a14.95 14.95 0 0 0-21.21 0 15 15 0 1 0 21.22 0zm-1.4 1.4A12.91 12.91 0 0 1 29 16c0 3.14-1.11 6.1-3.13 8.45L7.55 6.13A12.9 12.9 0 0 1 16 3c3.47 0 6.74 1.35 9.2 3.8zM6.8 25.2A12.91 12.91 0 0 1 3 16c0-3.14 1.11-6.1 3.13-8.45l18.32 18.31A12.9 12.9 0 0 1 16 29a12.91 12.91 0 0 1-9.2-3.8z"/>
</symbol><symbol viewBox="0 0 32 32" fill-rule="evenodd" id="ki-library" xmlns="http://www.w3.org/2000/svg">
  <path d="M16 19.5v-14l9.6 7.2-9.6 6.8z"/>
  <path d="M27 32H0V5h5v2H2v23h23v-3h2z"/>
  <path d="M9 2h21v21H9V2m23-2H7v25h25V0H7h25z"/>
</symbol><symbol viewBox="0 0 32 32" fill-rule="evenodd" id="ki-library-nav" xmlns="http://www.w3.org/2000/svg">
  <path d="M16 2L4 14v16h10V19h4v11h10V14L16 2zm0 2.82l10 10.01V28h-6V17h-8v11H6V14.83L16 4.82z"/>
</symbol><symbol viewBox="0 0 32 32" fill-rule="evenodd" id="ki-lightning" xmlns="http://www.w3.org/2000/svg">
  <path d="M21.61 6.42l-3.54 9.22-.53 1.36h3.64l-10.73 8.72 3.47-8.34.58-1.38h-3.84l10.96-9.58M24 3L8 17h5L8 29l16-13h-5l5-13z"/>
</symbol><symbol viewBox="0 0 32 32" fill-rule="evenodd" id="ki-lightning-f" xmlns="http://www.w3.org/2000/svg">
  <path d="M24 3L8 17h5L8 29l16-13h-5l5-13z"/>
</symbol><symbol viewBox="0 0 32 32" fill-rule="evenodd" id="ki-linkedin" xmlns="http://www.w3.org/2000/svg">
  <path d="M12 24H9V12h3v12zm-1.5-14a1.5 1.5 0 1 1 0-3 1.5 1.5 0 0 1 0 3zM24 24h-3.33v-7c0-.45-.17-.84-.5-1.17a1.6 1.6 0 0 0-1.17-.5 1.6 1.6 0 0 0-1.17.5c-.33.33-.5.72-.5 1.17v7H14V12h3.33v2.08a8.62 8.62 0 0 1 1.28-1.4c.5-.45 1.05-.68 1.64-.68 1.04 0 1.93.4 2.66 1.22.72.82 1.09 1.8 1.09 2.95V24z"/>
</symbol><symbol viewBox="0 0 32 32" fill-rule="evenodd" id="ki-linkedin-f" xmlns="http://www.w3.org/2000/svg">
  <path d="M3 3v26h26V3H3zm9 21H9V12h3v12zm-1.5-14a1.5 1.5 0 1 1 0-3 1.5 1.5 0 0 1 0 3zM24 24h-3.33v-7c0-.45-.17-.84-.5-1.17a1.6 1.6 0 0 0-1.17-.5 1.6 1.6 0 0 0-1.17.5c-.33.33-.5.72-.5 1.17v7H14V12h3.33v2.08a8.62 8.62 0 0 1 1.28-1.4c.5-.45 1.05-.68 1.64-.68 1.04 0 1.93.4 2.66 1.22.72.82 1.09 1.8 1.09 2.95V24z"/>
</symbol><symbol viewBox="0 0 32 32" fill-rule="evenodd" id="ki-linkout" xmlns="http://www.w3.org/2000/svg">
  <path d="M25.5 16.5h2v12h-24v-24h12v2h-10v20h20v-10zm-7-13v3l5.07-.02L13.14 16.9l1.96 1.97L25.52 8.44l-.02 5.06h3v-10h-10z"/>
</symbol><symbol viewBox="0 0 32 32" fill-rule="evenodd" id="ki-list" xmlns="http://www.w3.org/2000/svg">
  <path d="M0 3h32v2H0zm0 8h32v2H0zm0 8h32v2H0zm0 8h32v2H0z"/>
</symbol><symbol viewBox="0 0 32 32" fill-rule="evenodd" id="ki-list-alt" xmlns="http://www.w3.org/2000/svg">
  <path d="M3 23h26v6H3zm0-10h26v6H3zM3 3h26v6H3z"/>
</symbol><symbol viewBox="0 0 32 32" fill-rule="evenodd" id="ki-list-close" xmlns="http://www.w3.org/2000/svg">
  <path d="M16 19l9.7 9.6-1.4 1.4-8.3-8.2L7.7 30l-1.4-1.4zM1 15h30v2H1zM7.7 2l8.3 8.2L24.3 2l1.4 1.4L16 13 6.3 3.4z"/>
</symbol><symbol viewBox="0 0 32 32" fill-rule="evenodd" id="ki-list-expand" xmlns="http://www.w3.org/2000/svg">
  <path d="M24.3 13L16 4.8 7.7 13l-1.4-1.4L16 2l9.7 9.6zM1 15h30v2H1zm15 15l-9.7-9.6L7.7 19l8.3 8.2 8.3-8.2 1.4 1.4z"/>
</symbol><symbol viewBox="0 0 32 32" fill-rule="evenodd" id="ki-location-arrow" xmlns="http://www.w3.org/2000/svg">
  <path d="M4.47 13.97a.79.79 0 1 0 .17 1.5l9.97 1.92 1.92 9.97a.79.79 0 0 0 .77.64.8.8 0 0 0 .73-.47l9.9-22.42a.8.8 0 0 0-1.04-1.04l-22.42 9.9z" clip-rule="evenodd"/>
</symbol><symbol viewBox="0 0 32 32" fill-rule="evenodd" id="ki-lock" xmlns="http://www.w3.org/2000/svg">
  <path d="M24 14v-3a8 8 0 0 0-16 0v3H6v15h20V14zm-14-3a6 6 0 0 1 12 0v3H10zm14 16H8V16h16z"/>
  <path d="M19 26h-6v-3.59l-1-1V17h8v4.41l-1 1zm-4-2h2v-2.41l1-1V19h-4v1.59l1 1z"/>
</symbol><symbol viewBox="0 0 32 32" fill-rule="evenodd" id="ki-lock-f" xmlns="http://www.w3.org/2000/svg">
  <path d="M24 14v-3a8 8 0 0 0-16 0v3H6v15h20V14zm-5 7.41l-1 1V25h-4v-2.59l-1-1V18h6zM22 14H10v-3a6 6 0 0 1 12 0z"/>
</symbol><symbol viewBox="0 0 32 32" fill-rule="evenodd" id="ki-lock-unlock" xmlns="http://www.w3.org/2000/svg">
  <path d="M10 14v-3a6 6 0 0 1 12 0h2a8 8 0 0 0-16 0v3H6v15h20V14zm14 13H8V16h16z"/>
  <path d="M19 26h-6v-3.59l-1-1V17h8v4.41l-1 1zm-4-2h2v-2.41l1-1V19h-4v1.59l1 1z"/>
</symbol><symbol viewBox="0 0 32 32" fill-rule="evenodd" id="ki-lock-unlock-f" xmlns="http://www.w3.org/2000/svg">
  <path d="M10 14v-3a6 6 0 0 1 12 0h2a8 8 0 0 0-16 0v3H6v15h20V14zm9 7.41l-1 1V25h-4v-2.59l-1-1V18h6z"/>
</symbol><symbol viewBox="0 0 32 32" fill-rule="evenodd" id="ki-mail" xmlns="http://www.w3.org/2000/svg">
  <path d="M1 6v20h30V6H1zm20 10l8-6.2v12.4L21 16zm6.5-8L16 17 4.5 8h23zM11 16l-8 6.2V9.8l8 6.2zm-6.5 8l8.38-6.5L16 20l3.13-2.5L27.5 24h-23z"/>
</symbol><symbol viewBox="0 0 32 32" fill-rule="evenodd" id="ki-manufacturer" xmlns="http://www.w3.org/2000/svg">
  <path d="M26.84 9.13l-.02-.03a1.08 1.08 0 0 0-.15-.17l-.06-.05-.08-.07-.08-.03-.04-.03-10-4.66a1.02 1.02 0 0 0-.85 0L10.8 6.31l-.02.01-5.2 2.43c-.02 0-.03.03-.05.04l-.06.02-.06.05a.81.81 0 0 0-.1.09l-.1.1-.07.1-.06.15-.04.1a.98.98 0 0 0-.04.24V22.3c0 .39.23.74.58.91l9.99 4.7h.04c.13.05.26.09.39.09s.26-.04.39-.09h.04l9.99-4.7a1.01 1.01 0 0 0 .58-.91V9.66a1 1 0 0 0-.16-.53zM16 6.13l7.6 3.54-2.49 1.17-7.57-3.57 2.46-1.14zm-4.85 2.26l7.58 3.57-2.1.99-.63.3-.08-.05L8.4 9.67l2.74-1.28zM7.03 21.66v-10.4L14.98 15v10.4l-7.95-3.74zm17.94 0l-7.96 3.74V15l3.04-1.43v4.68a1.01 1.01 0 0 0 2.03 0v-5.63l2.9-1.36v10.4z"/>
</symbol><symbol viewBox="0 0 32 32" fill-rule="evenodd" id="ki-map-point" xmlns="http://www.w3.org/2000/svg">
  <path d="M25.2 7.1c-.5-1.2-1.2-2.3-2.1-3.2a10.46 10.46 0 0 0-11-2.2c-1.2.5-2.3 1.2-3.2 2.1A10.46 10.46 0 0 0 6 10.9c0 4.14 1.62 6.1 4.8 11.45C13.33 26.79 16 31 16 31s2.58-4.17 5.2-8.55C24.33 17.04 26 15.04 26 11c0-1.4-.2-2.7-.8-3.9zM16 17a6 6 0 1 1 0-12 6 6 0 0 1 0 12z"/>
</symbol><symbol viewBox="0 0 32 32" fill-rule="evenodd" id="ki-menu" xmlns="http://www.w3.org/2000/svg">
  <path d="M3 24h26v3H3zm0-9.5h26v3H3zM3 5h26v3H3z"/>
</symbol><symbol viewBox="0 0 32 32" fill-rule="evenodd" id="ki-microphone" xmlns="http://www.w3.org/2000/svg">
  <path d="M22 30h-5v-5.05a9.51 9.51 0 0 0 8.5-9.45 1 1 0 1 0-2 0 7.5 7.5 0 0 1-15 0 1 1 0 0 0-2 0c0 4.9 3.73 8.94 8.5 9.45V30h-5a1 1 0 1 0 0 2h12a1 1 0 1 0 0-2z"/>
  <path d="M16 21a6 6 0 0 0 6-6V6a6 6 0 0 0-12 0v9a6 6 0 0 0 6 6zM12 6a4 4 0 0 1 8 0v9a4 4 0 0 1-8 0V6z"/>
</symbol><symbol viewBox="0 0 32 32" fill-rule="evenodd" id="ki-minus" xmlns="http://www.w3.org/2000/svg">
  <path d="M3 14h26v4H3z"/>
</symbol><symbol viewBox="0 0 32 32" fill-rule="evenodd" id="ki-minus-circle" xmlns="http://www.w3.org/2000/svg">
  <path d="M9 15h14v2H9z"/>
  <path d="M16 2a14 14 0 1 0 0 28 14 14 0 0 0 0-28zm0 26a12.01 12.01 0 1 1 12-12c0 6.62-5.38 12-12 12z"/>
</symbol><symbol viewBox="0 0 32 32" fill-rule="evenodd" id="ki-minus-circle-f" xmlns="http://www.w3.org/2000/svg">
  <path d="M16 2a14 14 0 1 0 0 28 14 14 0 0 0 0-28zm9 16H7v-4h18v4z" clip-rule="evenodd"/>
</symbol><symbol viewBox="0 0 32 32" fill-rule="evenodd" id="ki-model" xmlns="http://www.w3.org/2000/svg">
  <path d="M28 11.5H5v-3a1 1 0 0 0-2 0v15a1 1 0 0 0 1 1h24a1 1 0 0 0 1-1v-11a1 1 0 0 0-1-1zm-1 11H5v-9h22v9z"/>
  <circle cx="16" cy="18" r="2"/>
  <circle cx="23" cy="18" r="2"/>
  <circle cx="9" cy="18" r="2"/>
</symbol><symbol viewBox="0 0 32 32" fill-rule="evenodd" id="ki-more-down" xmlns="http://www.w3.org/2000/svg">
  <path d="M23.17 12L16 19.17 8.83 12h14.34M28 10H4l12 12 12-12z"/>
</symbol><symbol viewBox="0 0 32 32" fill-rule="evenodd" id="ki-more-down-f" xmlns="http://www.w3.org/2000/svg">
  <path d="M28 10H4l12 12 12-12z"/>
</symbol><symbol viewBox="0 0 32 32" fill-rule="evenodd" id="ki-more-horz" xmlns="http://www.w3.org/2000/svg">
  <path d="M4 12a4 4 0 1 0 0 8 4 4 0 0 0 0-8zm0 6a2 2 0 1 1 0-4 2 2 0 0 1 0 4zm12-6a4 4 0 1 0 0 8 4 4 0 0 0 0-8zm0 6a2 2 0 1 1 0-4 2 2 0 0 1 0 4zm12-6a4 4 0 1 0 0 8 4 4 0 0 0 0-8zm0 6a2 2 0 1 1 0-4 2 2 0 0 1 0 4z"/>
</symbol><symbol viewBox="0 0 32 32" fill-rule="evenodd" id="ki-more-horz-f" xmlns="http://www.w3.org/2000/svg">
  <circle cx="28" cy="16" r="4"/>
  <circle cx="4" cy="16" r="4"/>
  <circle cx="16" cy="16" r="4"/>
</symbol><symbol viewBox="0 0 32 32" fill-rule="evenodd" id="ki-more-up" xmlns="http://www.w3.org/2000/svg">
  <path d="M8.83 20L16 12.83 23.17 20H8.83M4 22h24L16 10 4 22z"/>
</symbol><symbol viewBox="0 0 32 32" fill-rule="evenodd" id="ki-more-up-f" xmlns="http://www.w3.org/2000/svg">
  <path d="M4 22h24L16 10 4 22z"/>
</symbol><symbol viewBox="0 0 32 32" fill-rule="evenodd" id="ki-more-vert" xmlns="http://www.w3.org/2000/svg">
  <path d="M12 28a4 4 0 1 0 8 0 4 4 0 0 0-8 0zm6 0a2 2 0 1 1-4 0 2 2 0 0 1 4 0zm-6-12a4 4 0 1 0 8 0 4 4 0 0 0-8 0zm6 0a2 2 0 1 1-4 0 2 2 0 0 1 4 0zM12 4a4 4 0 1 0 8 0 4 4 0 0 0-8 0zm6 0a2 2 0 1 1-4 0 2 2 0 0 1 4 0z"/>
</symbol><symbol viewBox="0 0 32 32" fill-rule="evenodd" id="ki-more-vert-f" xmlns="http://www.w3.org/2000/svg">
  <circle cx="16" cy="4" r="4"/>
  <circle cx="16" cy="28" r="4"/>
  <circle cx="16" cy="16" r="4"/>
</symbol><symbol viewBox="0 0 32 32" fill-rule="evenodd" id="ki-notes" xmlns="http://www.w3.org/2000/svg">
  <path d="M9 7.5h20v3H9zm-6 0h3v3H3zm6 7h20v3H9zm-6 0h3v3H3zm6 7h20v3H9zm-6 0h3v3H3z"/>
</symbol><symbol viewBox="0 0 32 32" fill-rule="evenodd" id="ki-on-demand-nav" xmlns="http://www.w3.org/2000/svg">
  <path d="M26 10V6h-5V2H2v28h19v-4h5v-4h4V10h-4zm-7 18H4V4h15v24zm5-4h-3V8h3v16zm4-4h-2v-8h2v8z"/>
</symbol><symbol viewBox="0 0 32 32" fill-rule="evenodd" id="ki-ota" xmlns="http://www.w3.org/2000/svg">
  <path d="M21 28a1 1 0 0 1-1 1h-8a1 1 0 0 1 0-2h3v-7.13a4 4 0 1 1 2 0V27h3a1 1 0 0 1 1 1z"/>
  <path d="M12 23.92a1 1 0 0 1-.5-.13 9 9 0 1 1 9 0 1 1 0 1 1-1-1.73 7 7 0 1 0-7 0 1 1 0 0 1-.5 1.86z"/>
  <path d="M23 26.74a1 1 0 0 1-.58-1.8 11 11 0 1 0-12.84 0 1 1 0 1 1-1.16 1.61 13 13 0 1 1 15.16 0 1 1 0 0 1-.58.2z"/>
</symbol><symbol viewBox="0 0 32 32" fill-rule="evenodd" id="ki-ota-cross" xmlns="http://www.w3.org/2000/svg">
  <path d="M12.87 23.42a1.01 1.01 0 0 1-1.37.37A9 9 0 0 1 7 16a8.9 8.9 0 0 1 .74-3.55 1 1 0 0 1 1.6-.28.98.98 0 0 1 .23 1.08 6.97 6.97 0 0 0 2.93 8.8 1.01 1.01 0 0 1 .37 1.37zm11.55-10.6a8.94 8.94 0 0 1-.22 6.87.89.89 0 0 1-1.43.25l-.16-.16a.91.91 0 0 1-.18-1.01 6.98 6.98 0 0 0-1.53-7.75 6.78 6.78 0 0 0-3.84-1.94 7.08 7.08 0 0 0-3.83.5.97.97 0 0 1-1.06-.24.99.99 0 0 1 .27-1.6 8.98 8.98 0 0 1 11.98 5.08zM21 28a1 1 0 0 1-1 1h-8a1 1 0 1 1 0-2h3v-6a1 1 0 1 1 2 0v6h3a1 1 0 0 1 1 1zm6 0a1 1 0 0 1-.71-.3l-22-21.99A1 1 0 1 1 5.71 4.3l22 22A1 1 0 0 1 27 28z"/>
  <path d="M9.81 26.32a1 1 0 0 1-1.39.23A12.98 12.98 0 0 1 4.81 9.4a1 1 0 0 1 1.57-.2 1.01 1.01 0 0 1 .13 1.24 11 11 0 0 0 3.07 14.5 1 1 0 0 1 .23 1.38zM27.78 10.5a12.97 12.97 0 0 1-.58 12.09 1 1 0 0 1-1.58.2 1.02 1.02 0 0 1-.14-1.24A10.99 10.99 0 0 0 10.45 6.5a1.01 1.01 0 0 1-1.24-.13 1 1 0 0 1 .2-1.56 12.98 12.98 0 0 1 18.38 5.68z"/>
</symbol><symbol viewBox="0 0 32 32" fill-rule="evenodd" id="ki-pause" xmlns="http://www.w3.org/2000/svg">
  <path d="M5 4h6v24H5zm16 0h6v24h-6z"/>
</symbol><symbol viewBox="0 0 32 32" fill-rule="evenodd" id="ki-pdf" xmlns="http://www.w3.org/2000/svg">
  <path d="M25 9V3H7v26h14v-4h4v-6h2v6.88L21.87 31H5V1h22v8h-2zm-5.58 3.67c-.18 0-.31 0-.37.03v1.16c.06.03.16.03.31.03.46 0 .76-.24.76-.64 0-.36-.24-.58-.7-.58zm4.67 1.28c0 .95-.55 1.38-1.34 1.38-.09 0-.25 0-.31-.03v-2.57c.06 0 .22-.03.4-.03.76 0 1.25.43 1.25 1.25zM17 11v6h12v-6H17zm3.64 3.14c-.3.27-.76.39-1.28.39-.12 0-.21 0-.31-.03v1.41h-.88v-3.82h.03c.27-.06.64-.09 1.19-.09s.95.09 1.19.31c.24.18.43.51.43.91s-.12.7-.37.92zm3.76 1.34a2.8 2.8 0 0 1-1.8.52c-.46 0-.8-.03-1.01-.06v-3.85c.32-.06.74-.09 1.16-.09.76 0 1.22.15 1.62.43.39.3.67.79.67 1.46 0 .77-.28 1.26-.64 1.59zm3.6-2.72h-1.5v.89h1.41v.73H26.5v1.56h-.88v-3.91H28v.73z"/>
</symbol><symbol viewBox="0 0 32 32" fill-rule="evenodd" id="ki-pdf-f" xmlns="http://www.w3.org/2000/svg">
  <path d="M18.25 12.67c-.18 0-.3 0-.36.03v1.16c.06.03.15.03.3.03.46 0 .76-.24.76-.64 0-.36-.24-.58-.7-.58zm3.42.03c-.18 0-.33.03-.4.03v2.57c.07.03.22.03.31.03.8 0 1.34-.43 1.34-1.37 0-.83-.49-1.26-1.25-1.26zm-2.2 1.44c-.3.27-.76.4-1.28.4-.12 0-.21 0-.3-.04v1.4H17v-3.8h.03c.27-.07.64-.1 1.2-.1.54 0 .94.1 1.18.3.25.19.43.52.43.92s-.12.7-.37.92zm3.76 1.34c-.4.34-1.04.52-1.8.52-.46 0-.8-.03-1.01-.06v-3.85h-.03a7.03 7.03 0 0 1 1.19-.09c.76 0 1.22.15 1.62.43.4.3.67.8.67 1.46 0 .77-.28 1.25-.64 1.6zm3.6-2.72h-1.5v.89h1.41v.73h-1.4v1.56h-.89v-3.91h2.38v.73zM27 9V1H5v30h16.87L27 25.88V19h3V9h-3zm-6 21v-5h5l-5 5zm7-13H15v-6h13v6z"/>
</symbol><symbol viewBox="0 0 32 32" fill-rule="evenodd" id="ki-person" xmlns="http://www.w3.org/2000/svg">
  <path d="M16 4c1.74 0 3 .42 3.77 1.26 1.34 1.47 1.1 4.1 1.02 4.95a2.68 2.68 0 0 0 .36 1.83c-.01.35-.05.8-.09 1.1-.4.5-.75.98-.88 1.57-.07.27-.62 2.12-.84 2.8-.11.13-.3.34-.44.47-.52.54-.96 1-1.15 1.66-.3 1.08.26 3.36.27 3.38.36 1.21.4 1.36 8.65 3.45L26.36 28H5.64l-.3-1.54c8.05-2.1 8.1-2.2 8.5-3.3.02-.03.8-2.64.18-3.88a4.25 4.25 0 0 0-.76-.99 8.24 8.24 0 0 1-.6-.68 69.6 69.6 0 0 1-.8-2.9 3.4 3.4 0 0 0-.84-1.46 16.64 16.64 0 0 1-.14-1.16c.15-.25.32-.6.38-1.08.04-.27.02-.47-.01-.75-.25-2.3.08-3.98.98-4.99C13 4.43 14.26 4 16 4m0-2c-8.4 0-6.67 8.4-6.72 8.75-.05.34-.25.4-.39.7-.13.29.15 2.31.26 2.62.11.3.68.73.77 1.1.07.27.7 2.67.9 3.2.23.61 1.28 1.53 1.41 1.8.14.27-.16 2.03-.25 2.28C11.88 22.7 3 25 3 25l1 5h24l1-5s-8.98-2.27-9.06-2.55a8.91 8.91 0 0 1-.26-2.28c.1-.36 1.33-1.34 1.5-1.84.14-.43.87-2.83.94-3.16.08-.32.58-.85.77-1.1.2-.25.31-2.34.26-2.62s-.32-.32-.38-.7C22.69 10.35 24.4 2 16 2z"/>
</symbol><symbol viewBox="0 0 32 32" fill-rule="evenodd" id="ki-person-f" xmlns="http://www.w3.org/2000/svg">
  <path d="M3 25s8.88-2.3 8.98-2.55c.09-.25.39-2.01.25-2.28-.13-.27-1.18-1.18-1.41-1.8-.2-.53-.83-2.93-.9-3.2-.09-.37-.66-.8-.77-1.1-.1-.3-.39-2.33-.26-2.62.14-.3.34-.36.39-.7C9.32 10.4 7.59 2 16 2s6.7 8.34 6.76 8.75c.07.37.34.41.39.7.05.28-.07 2.37-.26 2.62s-.7.78-.77 1.1c-.08.33-.8 2.73-.94 3.16-.17.5-1.4 1.48-1.5 1.84-.1.34.15 1.93.26 2.28C20.02 22.73 29 25 29 25l-1 5H4l-1-5z" clip-rule="evenodd"/>
</symbol><symbol viewBox="0 0 32 32" fill-rule="evenodd" id="ki-phone" xmlns="http://www.w3.org/2000/svg">
  <path d="M7.93 4.27l3.54 3.54-1.77 3.18s.9 1.97 5.12 6.19c4.27 4.26 6.1 5.21 6.1 5.21l3.27-1.85 3.54 3.53-2.83 2.83s-4.22 1.44-12.73-7.07C3.71 11.37 5.1 7.1 5.1 7.1l2.83-2.83m0-2.83L3.2 6.16s-2.06 5.47 7.55 15.08 15.08 7.55 15.08 7.55l4.72-4.72-6.03-6.02-3.47 1.97c-1.07-.83-2.27-1.7-4.82-4.26-2.55-2.55-3.4-3.8-4.2-4.88l1.9-3.42-6.01-6.02z"/>
</symbol><symbol viewBox="0 0 32 32" fill-rule="evenodd" id="ki-phone-f" xmlns="http://www.w3.org/2000/svg">
  <path d="M7.22 2.15l-4 4s-1.37 4.77 8.24 14.39 14.38 8.25 14.38 8.25l4.01-4.01-5.32-5.32-3.47 1.97c-1.38-.54-3.51-1.88-6.06-4.43s-3.8-4.6-4.37-6.12l1.9-3.42-5.3-5.3z"/>
</symbol><symbol viewBox="0 0 32 32" fill-rule="evenodd" id="ki-phone-office" xmlns="http://www.w3.org/2000/svg">
  <path d="M9.46 2H7.54A2.55 2.55 0 0 0 5 4.54v23.92A2.55 2.55 0 0 0 7.54 31h1.92A2.55 2.55 0 0 0 12 28.46V4.54A2.55 2.55 0 0 0 9.46 2zM10 28.46a.55.55 0 0 1-.54.54H7.54a.55.55 0 0 1-.54-.54V4.54c0-.3.25-.54.54-.54h1.92c.3 0 .54.25.54.54v23.92zM1 4h2v24H1zm13 0v2h14v20H14v2h16V4z"/>
  <path d="M16 8h10v4H16zm0 6h2v2h-2zm4 0h2v2h-2zm4 0h2v2h-2zm-8 4h2v2h-2zm4 0h2v2h-2zm4 0h2v2h-2zm-8 4h2v2h-2zm4 0h2v2h-2zm4 0h2v2h-2z"/>
</symbol><symbol viewBox="0 0 32 32" fill-rule="evenodd" id="ki-phone-office-f" xmlns="http://www.w3.org/2000/svg">
  <path d="M9.46 2H7.54A2.54 2.54 0 0 0 5 4.54v23.92C5 29.86 6.14 31 7.54 31h1.92c1.4 0 2.54-1.14 2.54-2.54V4.54C12 3.14 10.86 2 9.46 2zM1 4h2v24H1zm13 0v24h16V4H14zm5 20h-2v-2h2v2zm0-4h-2v-2h2v2zm0-4h-2v-2h2v2zm4 8h-2v-2h2v2zm0-4h-2v-2h2v2zm0-4h-2v-2h2v2zm4 8h-2v-2h2v2zm0-4h-2v-2h2v2zm0-4h-2v-2h2v2zm0-4H17V8h10v4z"/>
</symbol><symbol viewBox="0 0 32 32" fill-rule="evenodd" id="ki-pin" xmlns="http://www.w3.org/2000/svg">
  <path d="M25.35 16.42a9.58 9.58 0 0 0-4.08-3.22l-1.19-6.57a6.33 6.33 0 0 0 2.2-2.37A7.21 7.21 0 0 0 23.32 1c0-.55-.06-1-.06-1H8.74S8.7.45 8.7 1c0 .9.4 2.15 1.04 3.26a6.35 6.35 0 0 0 2.2 2.38l-1.19 6.55a9.61 9.61 0 0 0-4.1 3.23c-1.13 1.5-1.8 3.22-1.8 4.58l.01 1H15v7.86a.37.37 0 0 0 .04.13l.22.5a21 21 0 0 0 .54 1.1c.04.1.08.17.12.23l.07.13.03.05.03-.05.08-.13a14.34 14.34 0 0 0 .27-.52 21 21 0 0 0 .39-.81l.21-.5a.37.37 0 0 0 .04-.13V22h10.1l.02-1c0-1.36-.67-3.07-1.8-4.58zM7.01 20c.55-1.88 2.46-4.38 4.95-5.1a1 1 0 0 0 .7-.86l1.35-7.89a1 1 0 0 0-.67-1.05 3.99 3.99 0 0 1-1.87-1.84A7.05 7.05 0 0 1 10.9 2h10.21a6.9 6.9 0 0 1-.56 1.26 3.99 3.99 0 0 1-1.87 1.84 1 1 0 0 0-.66 1.05l1.34 7.9a1 1 0 0 0 .7.85c2.48.72 4.38 3.22 4.93 5.1H7.01z"/>
</symbol><symbol viewBox="0 0 32 32" fill-rule="evenodd" id="ki-pin-f" xmlns="http://www.w3.org/2000/svg">
  <path d="M25.35 16.42a9.58 9.58 0 0 0-4.08-3.22l-1.19-6.57a6.33 6.33 0 0 0 2.2-2.37A7.21 7.21 0 0 0 23.32 1c0-.55-.06-1-.06-1H8.74S8.7.45 8.7 1c0 .9.4 2.15 1.04 3.26a6.35 6.35 0 0 0 2.2 2.38l-1.19 6.55a9.61 9.61 0 0 0-4.1 3.23c-1.13 1.5-1.8 3.22-1.8 4.58l.01 1H15v7.86a.37.37 0 0 0 .04.13l.22.5a21 21 0 0 0 .54 1.1c.04.1.08.17.12.23l.07.13.03.05.03-.05.08-.13a14.34 14.34 0 0 0 .27-.52 21 21 0 0 0 .39-.81l.21-.5a.37.37 0 0 0 .04-.13V22h10.1l.02-1c0-1.36-.67-3.07-1.8-4.58z"/>
</symbol><symbol viewBox="0 0 32 32" fill-rule="evenodd" id="ki-play" xmlns="http://www.w3.org/2000/svg">
  <path d="M7 5.48L25.03 16 7 26.52V5.48M5 2v28l24-14L5 2z"/>
</symbol><symbol viewBox="0 0 32 32" fill-rule="evenodd" id="ki-play-f" xmlns="http://www.w3.org/2000/svg">
  <path d="M5 30V2l24 14z"/>
</symbol><symbol viewBox="0 0 32 32" fill-rule="evenodd" id="ki-plus" xmlns="http://www.w3.org/2000/svg">
  <path d="M29 14.5v3H17.5V29h-3V17.5H3v-3h11.5V3h3v11.5z"/>
</symbol><symbol viewBox="0 0 32 32" fill-rule="evenodd" id="ki-plus-alt" xmlns="http://www.w3.org/2000/svg">
  <path d="M20 3h-8v9H3v8h9v9h8v-9h9v-8h-9V3z"/>
</symbol><symbol viewBox="0 0 32 32" fill-rule="evenodd" id="ki-plus-circle" xmlns="http://www.w3.org/2000/svg">
  <path d="M17 10h-2v5h-5v2h5v5h2v-5h5v-2h-5z"/>
  <path d="M16 2a14 14 0 1 0 0 28 14 14 0 0 0 0-28zm0 26a12.01 12.01 0 1 1 12-12c0 6.62-5.38 12-12 12z"/>
</symbol><symbol viewBox="0 0 32 32" fill-rule="evenodd" id="ki-plus-circle-f" xmlns="http://www.w3.org/2000/svg">
  <path d="M16 2a14 14 0 1 0 0 28 14 14 0 0 0 0-28zm8 16h-6v6h-4v-6H8v-4h6V8h4v6h6v4z" clip-rule="evenodd"/>
</symbol><symbol viewBox="0 0 32 32" fill-rule="evenodd" id="ki-print" xmlns="http://www.w3.org/2000/svg">
  <path d="M10 18h12v1H10v-1zm0 3h12v1H10v-1zm0 3h12v1H10v-1zm21-14h-6V3H7v7H1v13h6v6l18-.01V23h6V10zM9 5h14v5H9V5zm15 23H8V15h16v13z"/>
</symbol><symbol viewBox="0 0 32 32" fill-rule="evenodd" id="ki-question-circle" xmlns="http://www.w3.org/2000/svg">
  <path d="M16 2a14 14 0 1 0 0 28 14 14 0 0 0 0-28zm0 26a12.01 12.01 0 0 1 0-24 12.01 12.01 0 0 1 0 24z"/>
  <circle cx="16" cy="22.75" r="2.25"/>
  <path d="M21.25 11.69c0 4-3.46 3.46-3.81 5.99V19h-2.83v-1.47c.3-3.62 3.41-3.28 3.35-5.54 0-1.28-.67-1.88-1.78-1.88-1.5 0-2.15 1.23-2.15 2.71h-3.08c.07-2.99 2.01-5.16 5.09-5.16 3.93 0 5.21 2.45 5.21 4.03z"/>
</symbol><symbol viewBox="0 0 32 32" fill-rule="evenodd" id="ki-question-circle-f" xmlns="http://www.w3.org/2000/svg">
  <path d="M16 2a14 14 0 1 0 0 28 14 14 0 0 0 0-28zm0 23a2.25 2.25 0 1 1 0-4.5 2.25 2.25 0 0 1 0 4.5zm1.44-7.32V19h-2.83v-1.47c.3-3.62 3.41-3.28 3.35-5.54 0-1.28-.67-1.88-1.78-1.88-1.5 0-2.15 1.23-2.15 2.71h-3.08c.07-2.99 2.01-5.16 5.09-5.16 3.93 0 5.21 2.45 5.21 4.03 0 4-3.46 3.46-3.81 5.99z"/>
</symbol><symbol viewBox="0 0 32 32" fill-rule="evenodd" id="ki-radio" xmlns="http://www.w3.org/2000/svg">
  <path d="M16 7a9.01 9.01 0 0 1 0 18 9.01 9.01 0 0 1 0-18m0-3a12 12 0 1 0 0 24 12 12 0 0 0 0-24z"/>
</symbol><symbol viewBox="0 0 32 32" fill-rule="evenodd" id="ki-radio-f" xmlns="http://www.w3.org/2000/svg">
  <path d="M16 4a12 12 0 1 0 0 24 12 12 0 0 0 0-24zm0 21a9.01 9.01 0 0 1 0-18 9.01 9.01 0 0 1 0 18z"/>
  <circle cx="16" cy="16" r="7"/>
</symbol><symbol viewBox="0 0 32 32" fill-rule="evenodd" id="ki-record" xmlns="http://www.w3.org/2000/svg">
  <path d="M16 6a10.01 10.01 0 0 1 0 20 10.01 10.01 0 0 1 0-20m0-3a13 13 0 1 0 0 26 13 13 0 0 0 0-26z"/>
</symbol><symbol viewBox="0 0 32 32" fill-rule="evenodd" id="ki-record-alt" xmlns="http://www.w3.org/2000/svg">
  <path d="M16 10a6 6 0 1 1-6 6 6 6 0 0 1 6-6m0-3a9 9 0 1 0 9 9 9 9 0 0 0-9-9z"/>
</symbol><symbol viewBox="0 0 32 32" fill-rule="evenodd" id="ki-record-alt-f" xmlns="http://www.w3.org/2000/svg">
  <circle cx="16" cy="16" r="9"/>
</symbol><symbol viewBox="0 0 32 32" fill-rule="evenodd" id="ki-record-cancel" xmlns="http://www.w3.org/2000/svg">
  <path d="M16 3a13 13 0 1 0 0 26 13 13 0 0 0 0-26zM6 16a9.94 9.94 0 0 1 1.96-5.92l13.96 13.96A9.94 9.94 0 0 1 16 26 10 10 0 0 1 6 16zm18.04 5.92L10.08 7.96A9.94 9.94 0 0 1 16 6a10 10 0 0 1 10 10 9.94 9.94 0 0 1-1.96 5.92z"/>
</symbol><symbol viewBox="0 0 32 32" fill-rule="evenodd" id="ki-record-cancel-series" xmlns="http://www.w3.org/2000/svg">
  <path d="M16 7.53c-.7 0-1.36.1-2.01.25a9.4 9.4 0 0 1 0 16.44c.65.16 1.32.25 2.01.25a8.47 8.47 0 1 0 0-16.94z"/>
  <path d="M32 16a8.47 8.47 0 0 1-10.48 8.22A9.4 9.4 0 0 0 26.35 16a9.4 9.4 0 0 0-4.83-8.22 8.32 8.32 0 0 1 2.01-.25A8.47 8.47 0 0 1 32 16zM2.48 21.99a8.47 8.47 0 1 0 11.98-11.98A8.47 8.47 0 1 0 2.48 22zm11.27-2.26l-9-9.01a6.48 6.48 0 0 1 9 9.01zm-9.85.84a6.48 6.48 0 0 1-.84-8.12l8.96 8.96a6.48 6.48 0 0 1-8.12-.84z"/>
</symbol><symbol viewBox="0 0 32 32" fill-rule="evenodd" id="ki-record-f" xmlns="http://www.w3.org/2000/svg">
  <circle cx="16" cy="16" r="13"/>
</symbol><symbol viewBox="0 0 32 32" fill-rule="evenodd" id="ki-record-series" xmlns="http://www.w3.org/2000/svg">
  <path d="M8.47 9.53a6.48 6.48 0 1 1-.01 12.96 6.48 6.48 0 0 1 .01-12.96m0-2a8.47 8.47 0 1 0 0 16.94 8.47 8.47 0 0 0 0-16.94z"/>
  <path d="M16 7.53c-.7 0-1.36.1-2.01.25a9.4 9.4 0 0 1 0 16.44c.65.16 1.32.25 2.01.25a8.47 8.47 0 1 0 0-16.94z"/>
  <path d="M32 16a8.47 8.47 0 0 1-10.48 8.22A9.4 9.4 0 0 0 26.35 16a9.4 9.4 0 0 0-4.83-8.22 8.32 8.32 0 0 1 2.01-.25A8.47 8.47 0 0 1 32 16z"/>
</symbol><symbol viewBox="0 0 32 32" fill-rule="evenodd" id="ki-record-series-f" xmlns="http://www.w3.org/2000/svg">
  <circle cx="8.47" cy="16" r="8.47"/>
  <path d="M24.47 16A8.47 8.47 0 0 0 16 7.53c-.7 0-1.36.1-2.01.25a9.4 9.4 0 0 1 0 16.44c.65.16 1.32.25 2.01.25A8.47 8.47 0 0 0 24.47 16z"/>
  <path d="M23.53 7.53c-.7 0-1.37.1-2.01.25a9.4 9.4 0 0 1 0 16.44c.64.16 1.32.25 2 .25a8.47 8.47 0 0 0 0-16.94z"/>
</symbol><symbol viewBox="0 0 32 32" fill-rule="evenodd" id="ki-refresh" xmlns="http://www.w3.org/2000/svg">
  <path d="M26.5 12L22 16h3a9 9 0 0 1-9 9 8.8 8.8 0 0 1-4.2-1.05l-2.19 2.19A11.9 11.9 0 0 0 16 28a12 12 0 0 0 12-12h3l-4.5-4zM7 16a9 9 0 0 1 13.2-7.95l2.19-2.19A11.9 11.9 0 0 0 16 4 12 12 0 0 0 4 16H1l4.5 4 4.5-4H7z"/>
</symbol><symbol viewBox="0 0 32 32" fill-rule="evenodd" id="ki-refresh-alt" xmlns="http://www.w3.org/2000/svg">
  <path d="M12 5.5l4 4.5V7a9 9 0 0 1 9 9 8.8 8.8 0 0 1-1.05 4.2l2.19 2.19A11.9 11.9 0 0 0 28 16 12 12 0 0 0 16 4V1l-4 4.5zM16 25a9 9 0 0 1-7.95-13.2L5.86 9.61A11.9 11.9 0 0 0 4 16a12 12 0 0 0 12 12v3l4-4.5-4-4.5v3z"/>
</symbol><symbol viewBox="0 0 32 32" fill-rule="evenodd" id="ki-reminder" xmlns="http://www.w3.org/2000/svg">
  <path d="M17 15V8h-2v9h9v-2z"/>
  <path d="M16 3C8.96 3 3 8.96 3 16s5.96 13 13 13 13-5.96 13-13S23.04 3 16 3zm0 24C9.97 27 5 22.03 5 16S9.97 5 16 5s11 4.97 11 11-4.97 11-11 11z"/>
</symbol><symbol viewBox="0 0 32 32" fill-rule="evenodd" id="ki-reminder-f" xmlns="http://www.w3.org/2000/svg">
  <path d="M16 3a13 13 0 1 0 0 26 13 13 0 0 0 0-26zm-1 14V8h2v7h7v2h-9z"/>
</symbol><symbol viewBox="0 0 32 32" fill-rule="evenodd" id="ki-reminder-series" xmlns="http://www.w3.org/2000/svg">
  <path d="M8.87 15.53V11.8H7v5.6h5.6v-1.87H8.87z"/>
  <path d="M8.47 9.53A6.47 6.47 0 1 1 2 16a6.48 6.48 0 0 1 6.47-6.47m0-2A8.47 8.47 0 1 0 16.94 16a8.47 8.47 0 0 0-8.47-8.47z"/>
  <path d="M16 7.53a8.53 8.53 0 0 0-2 .25 9.41 9.41 0 0 1 0 16.44 8.47 8.47 0 0 0 10.26-6.18A8.47 8.47 0 0 0 16 7.53z"/>
  <path d="M32 16a8.47 8.47 0 0 1-8.47 8.47 8.33 8.33 0 0 1-2-.25 9.41 9.41 0 0 0 0-16.44 8.33 8.33 0 0 1 2-.25A8.47 8.47 0 0 1 32 16z"/>
</symbol><symbol viewBox="0 0 32 32" fill-rule="evenodd" id="ki-restart" xmlns="http://www.w3.org/2000/svg">
  <path d="M29 16a13 13 0 1 1-25.72-2.72L6 16a10.02 10.02 0 0 0 10 10 10.01 10.01 0 0 0 0-20v2l-2.05-1.79L12 4.51l1.43-1.26L16 1v2a13 13 0 0 1 13 13z"/>
</symbol><symbol viewBox="0 0 32 32" fill-rule="evenodd" id="ki-restart-alt" xmlns="http://www.w3.org/2000/svg">
  <path d="M3 16a13 13 0 1 0 25.72-2.72L26 16a10.02 10.02 0 0 1-10 10 10.01 10.01 0 0 1 0-20v2l2.05-1.79L20 4.51l-1.43-1.26L16 1v2A13 13 0 0 0 3 16z"/>
</symbol><symbol viewBox="0 0 32 32" fill-rule="evenodd" id="ki-rewind" xmlns="http://www.w3.org/2000/svg">
  <path d="M22 10.53v10.94L12.89 16 22 10.53M24 7L9 16l15 9V7z"/>
</symbol><symbol viewBox="0 0 32 32" fill-rule="evenodd" id="ki-rewind-f" xmlns="http://www.w3.org/2000/svg">
  <path d="M24 7L9 16l15 9V7z"/>
</symbol><symbol viewBox="0 0 32 32" fill-rule="evenodd" id="ki-search" xmlns="http://www.w3.org/2000/svg">
  <path d="M4 13.48a10.48 10.48 0 0 0 16.99 8.22l6.3 6.3L29 26.29l-6.3-6.3a10.43 10.43 0 0 0 2.27-6.5 10.48 10.48 0 0 0-20.97 0zm2.27 0a8.23 8.23 0 0 1 16.43 0 8.23 8.23 0 0 1-16.43 0z"/>
</symbol><symbol viewBox="0 0 32 32" fill-rule="evenodd" id="ki-send" xmlns="http://www.w3.org/2000/svg">
  <path d="M28.69 15.52L3.73 4.54a.52.52 0 0 0-.7.66L6.96 16 3.03 26.8a.52.52 0 0 0 .7.66L28.7 16.48a.52.52 0 0 0 0-.96zm-22.3 8.39l2.48-6.82h13.04L6.4 23.9zm0-15.82l15.52 6.82H8.87L6.4 8.1z"/>
</symbol><symbol viewBox="0 0 32 32" fill-rule="evenodd" id="ki-services" xmlns="http://www.w3.org/2000/svg">
  <path d="M31 4H1a1 1 0 0 0-1 1v18a1 1 0 0 0 1 1h9.52l-1.45 3.63A1 1 0 0 0 10 29h12a1 1 0 0 0 .93-1.37L21.48 24H31a1 1 0 0 0 1-1V5a1 1 0 0 0-1-1zM20.52 27h-9.04l1.2-3h6.64l1.2 3zM30 22H2V6h28v16z"/>
</symbol><symbol viewBox="0 0 32 32" fill-rule="evenodd" id="ki-settings" xmlns="http://www.w3.org/2000/svg">
  <path d="M25.75 16a9.79 9.79 0 0 0-.1-1.3l3.23-2.39-3.25-5.62-3.67 1.6a9.73 9.73 0 0 0-2.27-1.31L19.25 3h-6.5l-.44 3.98a9.73 9.73 0 0 0-2.27 1.32L6.37 6.69 3.12 12.3l3.23 2.38a8.8 8.8 0 0 0 0 2.62l-3.23 2.38 3.25 5.62 3.67-1.6a9.73 9.73 0 0 0 2.27 1.31l.44 3.98h6.5l.44-3.98a9.73 9.73 0 0 0 2.27-1.32l3.67 1.61 3.25-5.62-3.23-2.38a9.79 9.79 0 0 0 .1-1.31zm1 4.13l-1.8 3.11-2.34-1.02-.88-.4-.77.6a8.1 8.1 0 0 1-1.88 1.1l-.9.36-.1.96-.28 2.53h-3.6l-.28-2.53-.1-.96-.9-.36a8.1 8.1 0 0 1-1.88-1.1l-.77-.6-.88.4-2.34 1.02-1.8-3.1 2.06-1.52.78-.57-.13-.96a7.19 7.19 0 0 1 0-2.18l.13-.96-.78-.57-2.06-1.51 1.8-3.11 2.34 1.02.88.4.77-.6a8.11 8.11 0 0 1 1.88-1.1l.9-.36.1-.96.28-2.54h3.6l.28 2.54.1.96.9.36a8.11 8.11 0 0 1 1.88 1.1l.77.6.88-.4 2.34-1.02 1.8 3.1-2.06 1.52-.78.57.13.96a7.19 7.19 0 0 1 0 2.18l-.13.96.78.57z"/>
  <path d="M16 10a6 6 0 1 0 6 6 6 6 0 0 0-6-6zm0 10.29A4.29 4.29 0 1 1 20.29 16 4.3 4.3 0 0 1 16 20.29z"/>
</symbol><symbol viewBox="0 0 32 32" fill-rule="evenodd" id="ki-settings-f" xmlns="http://www.w3.org/2000/svg">
  <path d="M25.75 16a9.79 9.79 0 0 0-.1-1.3l3.23-2.39-3.25-5.62-3.67 1.6a9.73 9.73 0 0 0-2.27-1.31L19.25 3h-6.5l-.44 3.98a9.73 9.73 0 0 0-2.27 1.32L6.37 6.69 3.12 12.3l3.23 2.38a8.8 8.8 0 0 0 0 2.62l-3.23 2.38 3.25 5.62 3.67-1.6a9.73 9.73 0 0 0 2.27 1.31l.44 3.98h6.5l.44-3.98a9.73 9.73 0 0 0 2.27-1.32l3.67 1.61 3.25-5.62-3.23-2.38a9.79 9.79 0 0 0 .1-1.31zm-4.06 0A5.69 5.69 0 1 1 16 10.31 5.69 5.69 0 0 1 21.69 16z"/>
</symbol><symbol viewBox="0 0 32 32" fill-rule="evenodd" id="ki-share-f" xmlns="http://www.w3.org/2000/svg">
  <path d="M22.97 0a5.02 5.02 0 0 1 3.53 1.44c.46.48.82 1.02 1.1 1.62S28 4.31 28 5c0 .73-.14 1.4-.4 1.98s-.64 1.12-1.1 1.58A4.85 4.85 0 0 1 22.97 10c-1.13 0-2.1-.31-2.94-.94l-6.37 5.19A4.76 4.76 0 0 1 14 16c0 .7-.1 1.3-.31 1.78l6.5 5.13A5.02 5.02 0 0 1 28 27.07c0 .66-.13 1.3-.4 1.9s-.64 1.13-1.1 1.6-.99.8-1.6 1.05a5.04 5.04 0 0 1-3.87 0 4.86 4.86 0 0 1-2.65-2.65 4.94 4.94 0 0 1-.38-1.9c0-.7.1-1.31.31-1.85l-6.5-5.06a4.63 4.63 0 0 1-2.78.87 4.7 4.7 0 0 1-3.53-1.5C4.5 18.6 4 17.42 4 16c0-.67.13-1.3.4-1.9a5.2 5.2 0 0 1 2.7-2.7 4.85 4.85 0 0 1 1.93-.4c.98 0 1.9.28 2.75.84l6.5-5.22A4.6 4.6 0 0 1 18 5 5.02 5.02 0 0 1 21.03.37c.6-.24 1.25-.37 1.94-.37z"/>
</symbol><symbol viewBox="0 0 32 32" fill-rule="evenodd" id="ki-shield" xmlns="http://www.w3.org/2000/svg">
  <path d="M16 4.56c2.38 1.56 6.28 2.87 9.9 3.3-.65 9.8-4.2 16.95-9.9 19.92-5.7-2.97-9.25-10.12-9.9-19.93 3.62-.42 7.52-1.73 9.9-3.29M16 2C14.4 3.75 8.81 5.9 4 6c.38 13.03 5.22 21.03 12 24 6.78-2.97 11.63-10.97 12-24-4.81-.1-10.4-2.25-12-4z"/>
</symbol><symbol viewBox="0 0 32 32" fill-rule="evenodd" id="ki-shield-f" xmlns="http://www.w3.org/2000/svg">
  <path d="M16 2C14.4 3.75 8.81 5.9 4 6c.38 13.03 5.22 21.03 12 24 6.78-2.97 11.63-10.97 12-24-4.81-.1-10.4-2.25-12-4z"/>
</symbol><symbol viewBox="0 0 32 32" fill-rule="evenodd" id="ki-shopping" xmlns="http://www.w3.org/2000/svg">
  <path d="M25 18a1 1 0 0 0 .95-.68l3-9a.94.94 0 0 0 .02-.16A.94.94 0 0 0 29 8v-.04a.96.96 0 0 0-.05-.2 1.01 1.01 0 0 0-.05-.18.98.98 0 0 0-.1-.15.99.99 0 0 0-.12-.16 1 1 0 0 0-.14-.1.96.96 0 0 0-.19-.1l-.03-.02a.96.96 0 0 0-.16-.02A.95.95 0 0 0 28 7H9.43l-.49-1.34A1 1 0 0 0 8 5H4a1 1 0 0 0 0 2h3.3l3.64 10.01-1.89 5.67A1 1 0 0 0 10 24h15a1 1 0 1 0 0-2H11.39l1.33-4zm1.61-9l-2.33 7H12.7l-2.55-7z"/>
  <circle cx="12" cy="27" r="2"/>
  <circle cx="22" cy="27" r="2"/>
</symbol><symbol viewBox="0 0 32 32" fill-rule="evenodd" id="ki-sliders" xmlns="http://www.w3.org/2000/svg">
  <circle cx="22" cy="22" r="3"/>
  <circle cx="10" cy="10" r="3"/>
  <path d="M9 2v4.13a3.66 3.66 0 0 1 2 0V2H9zm1 12c-.35 0-.68-.04-1-.13V30h2V13.87c-.32.09-.65.13-1 .13zM21 2v16.13a3.66 3.66 0 0 1 2 0V2h-2zm1 24c-.35 0-.68-.04-1-.13V30h2v-4.13c-.32.09-.65.13-1 .13z"/>
</symbol><symbol viewBox="0 0 32 32" fill-rule="evenodd" id="ki-sort" xmlns="http://www.w3.org/2000/svg">
  <path d="M22 4.2L25.84 9H23v7h-2V9h-2.84L22 4.2M22 1l-8 10h5v7h6v-7h5L22 1zM11 16v7h2.84L10 27.8 6.16 23H9v-7h2m2-2H7v7H2l8 10 8-10h-5v-7z"/>
</symbol><symbol viewBox="0 0 32 32" fill-rule="evenodd" id="ki-sort-f" xmlns="http://www.w3.org/2000/svg">
  <path d="M22 1l-8 10h5v7h6v-7h5L22 1zm-9 13H7v7H2l8 10 8-10h-5z"/>
</symbol><symbol viewBox="0 0 32 32" fill-rule="evenodd" id="ki-space" xmlns="http://www.w3.org/2000/svg">
  <path clip-rule="evenodd" d="M24 13v3H8v-3H5v6h22v-6z"/>
</symbol><symbol viewBox="0 0 32 32" fill-rule="evenodd" id="ki-speaker" xmlns="http://www.w3.org/2000/svg">
  <path d="M13 12H9v8h4l8 7h1V5h-1l-8 7zm7 11l-6-5h-1v-4h1l6-5v14z"/>
</symbol><symbol viewBox="0 0 32 32" fill-rule="evenodd" id="ki-speaker-f" xmlns="http://www.w3.org/2000/svg">
  <path d="M22 5v22h-1l-8-7H9v-8h4l8-7z"/>
</symbol><symbol viewBox="0 0 32 32" fill-rule="evenodd" id="ki-speaker-mute" xmlns="http://www.w3.org/2000/svg">
  <path d="M31 11l-2-2-5 5-5-5-2 2 5 5-5 5 2 2 5-5 5 5 2-2-5-5zM5 12H1v8h4l8 7h1V5h-1l-8 7zm7 11l-6-5H5v-4h1l6-5v14z"/>
</symbol><symbol viewBox="0 0 32 32" fill-rule="evenodd" id="ki-speaker-mute-f" xmlns="http://www.w3.org/2000/svg">
  <path d="M31 11l-2-2-5 5-5-5-2 2 5 5-5 5 2 2 5-5 5 5 2-2-5-5zM14 5v22h-1l-8-7H1v-8h4l8-7z"/>
</symbol><symbol viewBox="0 0 32 32" fill-rule="evenodd" id="ki-speaker-sound" xmlns="http://www.w3.org/2000/svg">
  <path d="M26.36 4.76L24.5 6.63a13.26 13.26 0 0 1 0 18.73l1.87 1.88c6.2-6.2 6.2-16.28 0-22.48z"/>
  <path d="M22.62 8.5l-1.87 1.88a7.95 7.95 0 0 1 0 11.24l1.87 1.87a10.6 10.6 0 0 0 0-14.98z"/>
  <path d="M17 14.13a2.65 2.65 0 0 1 0 3.74l1.87 1.88a5.3 5.3 0 0 0 0-7.5L17 14.13zM5 12H1v8h4l8 7h1V5h-1l-8 7zm7 11l-6-5H5v-4h1l6-5v14z"/>
</symbol><symbol viewBox="0 0 32 32" fill-rule="evenodd" id="ki-speaker-sound-f" xmlns="http://www.w3.org/2000/svg">
  <path d="M26.36 4.76L24.5 6.63a13.26 13.26 0 0 1 0 18.73l1.87 1.88c6.2-6.2 6.2-16.28 0-22.48z"/>
  <path d="M22.62 8.5l-1.87 1.88a7.95 7.95 0 0 1 0 11.24l1.87 1.87a10.6 10.6 0 0 0 0-14.98z"/>
  <path d="M17 14.13a2.65 2.65 0 0 1 0 3.74l1.87 1.88a5.3 5.3 0 0 0 0-7.5L17 14.13zM14 5v22h-1l-8-7H1v-8h4l8-7z"/>
</symbol><symbol viewBox="0 0 32 32" fill-rule="evenodd" id="ki-sports" xmlns="http://www.w3.org/2000/svg">
  <path d="M26.49 5.29a14.84 14.84 0 0 0-14.11-3.85 14.07 14.07 0 0 0-3.04 1.11c-.54.27-1.06.57-1.56.9-.21.13-.4.27-.6.41-.39.29-.77.6-1.13.92l-.54.51A14.82 14.82 0 0 0 1 16c0 3.78 1.42 7.4 3.99 10.18A15.04 15.04 0 0 0 16 31a15.04 15.04 0 0 0 15-15c0-4.08-1.6-7.88-4.51-10.71zM15 28.96l-.52-.05a9.62 9.62 0 0 1-1.13-.19l-.46-.1a14.19 14.19 0 0 1-1.76-.57 9.15 9.15 0 0 1-1-.46 13.01 13.01 0 0 1-2.27-1.47c-.15-.1-.28-.22-.42-.34l-.31-.28A13.02 13.02 0 0 1 15 22.04v6.92zm0-8.92a15.02 15.02 0 0 0-9.23 3.99A13.07 13.07 0 0 1 3.04 17H15v3.04zM15 15H3.05a12.7 12.7 0 0 1 3.21-7.6A14.78 14.78 0 0 0 15 10.96V15zm0-6.04A12.84 12.84 0 0 1 7.7 6c.29-.25.6-.48.91-.7l.46-.3a12.6 12.6 0 0 1 4.37-1.75l.07-.01a8.85 8.85 0 0 1 1.49-.2v5.92zm2-5.92a8.85 8.85 0 0 1 1.49.2l.07.01a9.86 9.86 0 0 1 1.09.27A12.42 12.42 0 0 1 24.3 6 12.84 12.84 0 0 1 17 8.96V3.04zm0 7.92c3.23-.2 6.27-1.44 8.73-3.56a12.65 12.65 0 0 1 3.22 7.6H17v-4.04zm7.56 14.82c-.14.12-.27.24-.42.34a10.45 10.45 0 0 1-2.27 1.47 6.65 6.65 0 0 1-1 .46 14.19 14.19 0 0 1-1.76.57l-.46.1a7.2 7.2 0 0 1-.64.12l-.49.07-.52.05v-6.92c2.94.23 5.72 1.45 7.87 3.46l-.31.28zm1.67-1.75A15.02 15.02 0 0 0 17 20.04V17h11.96c-.2 2.57-1.15 5-2.73 7.03z"/>
</symbol><symbol viewBox="0 0 32 32" fill-rule="evenodd" id="ki-square-checkbox" xmlns="http://www.w3.org/2000/svg">
  <path d="M26 6v20H6V6h20m2-2H4v24h24V4z"/>
</symbol><symbol viewBox="0 0 32 32" fill-rule="evenodd" id="ki-square-checkbox-f" xmlns="http://www.w3.org/2000/svg">
  <path d="M4 4v24h24V4H4zm9 19l-5-5 2-2 3 3 9-9 2 2-11 11z"/>
</symbol><symbol viewBox="0 0 32 32" fill-rule="evenodd" id="ki-star" xmlns="http://www.w3.org/2000/svg">
  <path d="M16 8.17l2.1 6.45h6.78l-5.49 4 2.1 6.44L16 21.08l-5.49 3.99 2.1-6.46-5.5-3.99h6.8L16 8.17m0-6.47l-3.55 10.92H.96l9.3 6.76L6.7 30.3 16 23.55l9.3 6.75-3.56-10.92 9.3-6.76H19.55L16 1.7z"/>
</symbol><symbol viewBox="0 0 32 32" fill-rule="evenodd" id="ki-star-f" xmlns="http://www.w3.org/2000/svg">
  <path d="M16 1.75l3.54 10.89H31l-9.27 6.72 3.54 10.89L16 23.52l-9.27 6.73 3.54-10.89L1 12.64h11.46z"/>
</symbol><symbol viewBox="0 0 32 32" fill-rule="evenodd" id="ki-star-half" xmlns="http://www.w3.org/2000/svg">
  <path d="M31.04 12.62H19.55L16 1.7l-3.55 10.93H.96L9 18.46l1.26.91L9 23.25 6.71 30.3 9 28.64l7-5.09 9.29 6.75-3.55-10.93 9.3-6.75zM16 21.07V8.17l2.1 6.45h6.78l-5.49 4 2.1 6.44L16 21.07z"/>
</symbol><symbol viewBox="0 0 32 32" fill-rule="evenodd" id="ki-start-over" xmlns="http://www.w3.org/2000/svg">
  <path d="M4.4 11.32a1.62 1.62 0 0 1-.4-1.06c0-.4.15-.78.4-1.06L9 3.76a1.59 1.59 0 0 1 2.27-.17 1.63 1.63 0 0 1 .17 2.28L9.09 8.64h9.22c5.37 0 9.69 4.52 9.69 10.08S23.68 28.8 18.31 28.8h-6.93c-.89 0-1.6-.72-1.6-1.62s.71-1.62 1.6-1.62h6.93c3.57 0 6.49-3.05 6.49-6.84s-2.92-6.85-6.49-6.85H9.1l2.35 2.77a1.63 1.63 0 0 1-.17 2.28A1.59 1.59 0 0 1 9 16.75l-4.62-5.43z"/>
</symbol><symbol viewBox="0 0 32 32" fill-rule="evenodd" id="ki-stop" xmlns="http://www.w3.org/2000/svg">
  <path d="M26 6v20H6V6h20m2-2H4v24h24V4z"/>
</symbol><symbol viewBox="0 0 32 32" fill-rule="evenodd" id="ki-stop-f" xmlns="http://www.w3.org/2000/svg">
  <path d="M28 4H4v24h24V4z"/>
</symbol><symbol viewBox="0 0 32 32" fill-rule="evenodd" id="ki-streaming-box" xmlns="http://www.w3.org/2000/svg">
  <path d="M25.43 9.56l1.88-1.88a16.02 16.02 0 0 0-22.62 0l1.88 1.88c5.2-5.2 13.66-5.2 18.86 0z"/>
  <path d="M21.66 13.34l1.88-1.89a10.68 10.68 0 0 0-15.08 0l1.88 1.89a8 8 0 0 1 11.32 0z"/>
  <path d="M17.89 17.1l1.88-1.88a5.34 5.34 0 0 0-7.54 0l1.89 1.89a2.67 2.67 0 0 1 3.77 0zm7.04 4.01l-1.71-1.71a1 1 0 0 0-.7-.29H9.48a1 1 0 0 0-.7.29l-1.71 1.71L4 24.17V28a1 1 0 0 0 1 1h22a1 1 0 0 0 1-1v-3.83l-3.07-3.06zm-15.04 0h12.22l3.06 3.06H6.83l3.06-3.06z"/>
</symbol><symbol viewBox="0 0 32 32" fill-rule="evenodd" id="ki-support" xmlns="http://www.w3.org/2000/svg">
  <path d="M16 3C8.83 3 3 8.83 3 16s5.83 13 13 13 13-5.83 13-13S23.17 3 16 3zm6.8 10.02l3.07-1.85A10.92 10.92 0 0 1 27 16c0 1.67-.38 3.24-1.05 4.65l-3.1-1.8a7.38 7.38 0 0 0-.05-5.83zm2.03-3.56l-3.08 1.86a7.48 7.48 0 0 0-1.28-1.24l1.92-3.02a11.05 11.05 0 0 1 2.44 2.4zM16 21.42A5.43 5.43 0 0 1 10.58 16 5.43 5.43 0 0 1 16 10.58 5.43 5.43 0 0 1 21.42 16 5.43 5.43 0 0 1 16 21.42zm4.66-15.37L18.72 9.1a7.38 7.38 0 0 0-5.6.05l-1.98-3A10.92 10.92 0 0 1 16 5c1.67 0 3.24.38 4.66 1.05zM9.44 7.19l1.97 2.99a7.5 7.5 0 0 0-1.25 1.26l-3.11-1.8a11.07 11.07 0 0 1 2.39-2.45zm-3.4 4.17l3.1 1.8a7.39 7.39 0 0 0 .06 5.8l-3.07 1.85A10.9 10.9 0 0 1 5 16c0-1.66.38-3.23 1.04-4.64zm1.12 11.16l3.08-1.85c.37.46.8.87 1.27 1.23L9.6 24.92a11.07 11.07 0 0 1-2.43-2.4zm4.16 3.42l1.93-3.05a7.37 7.37 0 0 0 5.6-.03l1.98 3A10.91 10.91 0 0 1 16 27c-1.68 0-3.26-.39-4.68-1.06zm11.22-1.12l-1.97-2.98c.47-.37.9-.8 1.26-1.26l3.11 1.8a11.05 11.05 0 0 1-2.4 2.44z"/>
</symbol><symbol viewBox="0 0 32 32" fill-rule="evenodd" id="ki-tablet" xmlns="http://www.w3.org/2000/svg">
  <path d="M26 0H6a2 2 0 0 0-2 2v28c0 1.1.9 2 2 2h20a2 2 0 0 0 2-2V2a2 2 0 0 0-2-2zM13 1h6v1h-6V1zm13 27H6V3h20v25z"/>
</symbol><symbol viewBox="0 0 32 32" fill-rule="evenodd" id="ki-tape" xmlns="http://www.w3.org/2000/svg">
  <path d="M32 16a7 7 0 1 0-14 0c0 1.96.8 3.73 2.1 5h-8.2a6.98 6.98 0 0 0 2.1-5 7 7 0 1 0-7 7h18c4.16 0 7-3.47 7-7zM2 16a5 5 0 1 1 10.01.01A5 5 0 0 1 2 16zm23 5a5 5 0 1 1 .01-10.01A5 5 0 0 1 25 21z"/>
</symbol><symbol viewBox="0 0 32 32" fill-rule="evenodd" id="ki-ticket" xmlns="http://www.w3.org/2000/svg">
  <path d="M18 2v1a2 2 0 0 1-4 0V2H9v28h5v-1a2 2 0 0 1 4 0v1h5V2h-5zm-5.87 2a4 4 0 0 0 7.74 0H21v8H11V4h1.13zm7.74 24a4 4 0 0 0-7.74 0H11V14h10v14h-1.13z"/>
  <path d="M16.83 18.9l2.59.05-2.06 1.56.75 2.48-2.13-1.47L13.86 23l.75-2.48-2.07-1.56 2.59-.06.84-2.44z"/>
</symbol><symbol viewBox="0 0 32 32" fill-rule="evenodd" id="ki-ticket-f" xmlns="http://www.w3.org/2000/svg">
  <path d="M18 2v1c0 .36-.1.71-.28 1-.34.6-.98 1-1.72 1s-1.38-.4-1.72-1A1.9 1.9 0 0 1 14 3V2H9v28h5v-1c0-.37.1-.71.28-1A1.98 1.98 0 1 1 18 29v1h5V2h-5zm.11 20.99l-2.13-1.48L13.86 23l.75-2.48-2.07-1.56 2.59-.06.84-2.45.86 2.45 2.58.04-2.05 1.57.75 2.48zM21 14H11v-2h10v2z"/>
</symbol><symbol viewBox="0 0 32 32" fill-rule="evenodd" id="ki-trash" xmlns="http://www.w3.org/2000/svg">
  <path d="M29 6V4h-9V1h-8v3H3v2zm-4 2l-1.81 21H8.81L7 8H5l2 23h18l2-23z"/>
</symbol><symbol viewBox="0 0 32 32" fill-rule="evenodd" id="ki-trash-f" xmlns="http://www.w3.org/2000/svg">
  <path d="M29 6V4h-9V1h-8v3H3v2zM5 8l2 23h18l2-23z"/>
</symbol><symbol viewBox="0 0 32 32" fill-rule="evenodd" id="ki-triangle-up" xmlns="http://www.w3.org/2000/svg">
  <path d="M16 9.03L24.55 24H7.45L16 9.03M16 5L4 26h24L16 5z"/>
</symbol><symbol viewBox="0 0 32 32" fill-rule="evenodd" id="ki-triangle-up-f" xmlns="http://www.w3.org/2000/svg">
  <path d="M28 26H4L16 5z"/>
</symbol><symbol viewBox="0 0 32 32" fill-rule="evenodd" id="ki-tv" xmlns="http://www.w3.org/2000/svg">
  <path d="M28 5H4a1 1 0 0 0-1 1v15a1 1 0 0 0 1 1h7.23l-2.09 3.48A1 1 0 0 0 10 27h12a1 1 0 0 0 .86-1.51L20.76 22H28a1 1 0 0 0 1-1V6a1 1 0 0 0-1-1zm-7.77 20h-8.46l1.8-3h4.86l1.8 3zM27 20H5V7h22v13z"/>
</symbol><symbol viewBox="0 0 32 32" fill-rule="evenodd" id="ki-tv-dvr" xmlns="http://www.w3.org/2000/svg">
  <path d="M28 5H4a1 1 0 0 0-1 1v15a1 1 0 0 0 1 1h7.23l-2.09 3.48A1 1 0 0 0 10 27h12a1 1 0 0 0 .86-1.51L20.76 22H28a1 1 0 0 0 1-1V6a1 1 0 0 0-1-1zm-7.77 20h-8.46l1.8-3h4.86l1.8 3zM27 20H5V7h22v13z"/>
  <path d="M8 10.8h2.09c1.68 0 2.84 1.16 2.84 2.67v.01c0 1.5-1.16 2.68-2.84 2.68H8V10.8zm2.09 4.3c.96 0 1.61-.66 1.61-1.6v-.02c0-.95-.65-1.61-1.61-1.61h-.91v3.22h.9zm3.09-4.3h1.3l1.4 3.77 1.4-3.77h1.27l-2.17 5.4h-1.04l-2.16-5.4zm6.2 0h2.44c.68 0 1.2.2 1.56.55.3.3.46.72.46 1.22v.02c0 .86-.47 1.4-1.15 1.66l1.31 1.9h-1.38l-1.14-1.7h-.93v1.7h-1.18v-5.34zm2.37 2.6c.57 0 .9-.3.9-.75v-.02c0-.5-.35-.76-.93-.76h-1.17v1.54h1.2z"/>
</symbol><symbol viewBox="0 0 32 32" fill-rule="evenodd" id="ki-tv-live-nav" xmlns="http://www.w3.org/2000/svg">
  <path d="M28 5H4a1 1 0 0 0-1 1v16a1 1 0 0 0 1 1h7.23l-2.09 3.48A1 1 0 0 0 10 28h12a1 1 0 0 0 .86-1.51L20.76 23H28a1 1 0 0 0 1-1V6a1 1 0 0 0-1-1zm-7.77 21h-8.46l1.8-3h4.86l1.8 3zM27 21H5V7h22v14z"/>
</symbol><symbol viewBox="0 0 32 32" fill-rule="evenodd" id="ki-tv-send" xmlns="http://www.w3.org/2000/svg">
  <path d="M7 27h15v3H7zM18.67 1H16c0 8.82 7.18 16 16 16v-2.67A13.35 13.35 0 0 1 18.67 1z"/>
  <path d="M24 1h-2.67c0 5.88 4.79 10.67 10.67 10.67V9a8 8 0 0 1-8-8z"/>
  <path d="M29.33 1h-2.66A5.34 5.34 0 0 0 32 6.33V3.67A2.67 2.67 0 0 1 29.33 1zM27 23H2V7h10.52a15.88 15.88 0 0 1-.38-2H0v20h29v-4.14a15.88 15.88 0 0 1-2-.38V23z"/>
</symbol><symbol viewBox="0 0 32 32" fill-rule="evenodd" id="ki-tv-send-f" xmlns="http://www.w3.org/2000/svg">
  <path d="M7 27h15v3H7zM18.67 1H16c0 8.82 7.18 16 16 16v-2.67A13.35 13.35 0 0 1 18.67 1z"/>
  <path d="M24 1h-2.67c0 5.88 4.79 10.67 10.67 10.67V9a8 8 0 0 1-8-8z"/>
  <path d="M29.33 1h-2.66A5.34 5.34 0 0 0 32 6.33V3.67A2.67 2.67 0 0 1 29.33 1zM12.4 5H0v20h29v-4.25A20 20 0 0 1 12.4 5z"/>
</symbol><symbol viewBox="0 0 32 32" fill-rule="evenodd" id="ki-twitter" xmlns="http://www.w3.org/2000/svg">
  <path d="M23.37 12.23c.39-.27.74-.57 1.05-.9.3-.33.6-.69.87-1.08a7.19 7.19 0 0 1-2.2.58 3.74 3.74 0 0 0 1-.9c.3-.36.52-.76.67-1.19a8.5 8.5 0 0 1-1.13.53c-.4.15-.84.29-1.3.4a3.6 3.6 0 0 0-2.73-1.22c-1.09 0-2 .37-2.73 1.1a3.7 3.7 0 0 0-1.1 2.73 3.75 3.75 0 0 0 .11.87 10.38 10.38 0 0 1-4.4-1.19 11.41 11.41 0 0 1-3.49-2.81 4.14 4.14 0 0 0-.38.9 3.57 3.57 0 0 0-.14 1.01c0 .66.15 1.27.46 1.83a3.75 3.75 0 0 0 1.28 1.37 7.58 7.58 0 0 1-.93-.18 2.57 2.57 0 0 1-.81-.34v.05c0 .93.29 1.74.87 2.44a3.86 3.86 0 0 0 2.2 1.33 7.07 7.07 0 0 1-.52.1 4.12 4.12 0 0 1-.52.02c-.12 0-.23 0-.35-.03a2.15 2.15 0 0 0-.35-.03 3.7 3.7 0 0 0 1.34 1.86 3.54 3.54 0 0 0 2.2.75 6.9 6.9 0 0 1-2.17 1.22 7.76 7.76 0 0 1-2.53.4h-.93a10.74 10.74 0 0 0 5.87 1.7c3.48 0 6.15-1.19 8-3.55 1.86-2.36 2.8-4.8 2.8-7.31v-.46z"/>
</symbol><symbol viewBox="0 0 32 32" fill-rule="evenodd" id="ki-twitter-f" xmlns="http://www.w3.org/2000/svg">
  <path d="M29 3v26H3V3h26zm-5.63 9.23c.39-.27.74-.57 1.05-.9.3-.33.6-.69.87-1.08a7.19 7.19 0 0 1-2.2.58 3.74 3.74 0 0 0 1-.9c.3-.36.52-.76.67-1.19a8.5 8.5 0 0 1-1.13.53c-.4.15-.84.29-1.3.4a3.6 3.6 0 0 0-2.73-1.22c-1.09 0-2 .37-2.73 1.1a3.7 3.7 0 0 0-1.1 2.73 3.75 3.75 0 0 0 .11.87 10.38 10.38 0 0 1-4.4-1.19 11.41 11.41 0 0 1-3.49-2.81 4.14 4.14 0 0 0-.38.9 3.57 3.57 0 0 0-.14 1.01c0 .66.15 1.27.46 1.83a3.75 3.75 0 0 0 1.28 1.37 7.58 7.58 0 0 1-.93-.18 2.57 2.57 0 0 1-.81-.34v.05c0 .93.29 1.74.87 2.44a3.86 3.86 0 0 0 2.2 1.33 7.07 7.07 0 0 1-.52.1 4.12 4.12 0 0 1-.52.02c-.12 0-.23 0-.35-.03a2.15 2.15 0 0 0-.35-.03 3.7 3.7 0 0 0 1.34 1.86 3.54 3.54 0 0 0 2.2.75 6.9 6.9 0 0 1-2.17 1.22 7.76 7.76 0 0 1-2.53.4h-.93a10.74 10.74 0 0 0 5.87 1.7c3.48 0 6.15-1.19 8-3.55 1.86-2.36 2.8-4.8 2.8-7.31v-.46z"/>
</symbol><symbol viewBox="0 0 32 32" fill-rule="evenodd" id="ki-upgrade" xmlns="http://www.w3.org/2000/svg">
  <path d="M28.79 17H22v12H10V17H3.21L16 3l12.79 14z"/>
</symbol><symbol viewBox="0 0 32 32" fill-rule="evenodd" id="ki-wifi" xmlns="http://www.w3.org/2000/svg">
  <path d="M12.63 22.63L16 26l3.37-3.37A5.21 5.21 0 0 0 16 21.42a5.25 5.25 0 0 0-3.38 1.2zM16 16.56c2.54 0 4.94.93 6.81 2.63l2.02-2.02a13.03 13.03 0 0 0-17.66 0l2.02 2.02A10.07 10.07 0 0 1 16 16.56zm0-7.7a17.8 17.8 0 0 1 12.27 4.87l2.02-2.02a20.75 20.75 0 0 0-28.58 0l2.02 2.02A17.8 17.8 0 0 1 16 8.85z"/>
</symbol><symbol viewBox="0 0 32 32" fill-rule="evenodd" id="ki-x" xmlns="http://www.w3.org/2000/svg">
  <path d="M18.1 16l8.9 8.88L24.9 27 16 18.1 7.1 27 5 24.88 13.9 16 5 7.1 7.1 5l8.9 8.9L24.9 5 27 7.1z"/>
</symbol><symbol viewBox="0 0 32 32" fill-rule="evenodd" id="ki-x-alt" xmlns="http://www.w3.org/2000/svg">
  <path d="M28.73 8.93l-5.66-5.66L16 10.34 8.93 3.27 3.27 8.93 10.34 16l-7.07 7.07 5.66 5.66L16 21.66l7.07 7.07 5.66-5.66L21.66 16l7.07-7.07z"/>
</symbol><symbol viewBox="0 0 32 32" fill-rule="evenodd" id="ki-x-circle" xmlns="http://www.w3.org/2000/svg">
  <path d="M16 2a14 14 0 1 0 0 28 14 14 0 0 0 0-28zm0 11.97l5.1-5.1L23.2 11l-5.04 5.05 5.04 5.04-2.12 2.12-5.04-5.04-.05-.04-.05.04-5.04 5.04-2.12-2.12 5.04-5.04L8.8 11l2.12-2.12 5.1 5.09z"/>
</symbol><symbol viewBox="0 0 32 32" fill-rule="evenodd" id="ki-youtube" xmlns="http://www.w3.org/2000/svg">
  <path d="M10.53 12.88H12V8.9L13.75 3h-1.47l-1 3.81L10.25 3H8.72l1.81 5.9v3.97zm6.69-.66c.28-.35.4-.9.4-1.72V7.81c0-1.6-.62-2.44-1.93-2.44a1.7 1.7 0 0 0-1.5.75c-.28.32-.4.88-.4 1.7v2.68c0 1.56.58 2.44 1.9 2.44.65 0 1.18-.25 1.53-.72zm2.47.72c.47 0 1-.28 1.47-.88v.81h1.34v-7.4h-1.31v.16h-.03v5.4c-.28.38-.57.56-.82.56-.18 0-.28-.03-.28-.15-.03-.13-.03-.35-.03-.66V5.47h-1.3v5.84c-.01 1 .05 1.63.96 1.63zm-4-6.22c.44 0 .65.34.65 1v2.9c0 .66-.21.97-.65.97-.4 0-.6-.3-.6-.97V7.41c.04-.44.25-.7.6-.7zm10.69 9.69a2.72 2.72 0 0 0-2.32-2.1 84.48 84.48 0 0 0-8.06-.28c-3.62 0-6.25.1-8.06.28-1.1.13-2.03.94-2.31 2.1-.29 1.09-.38 2.78-.38 5.06 0 2.34.1 4.03.37 5.12a2.76 2.76 0 0 0 2.32 2.1c1.78.22 4.47.31 8.06.31s6.28-.1 8.06-.31a2.73 2.73 0 0 0 2.31-2.1c.25-1.09.38-2.8.38-5.12 0-2.25-.13-3.9-.38-5.06zM9.84 26.16H8.38v-8.29h-1.5v-1.34h4.5v1.34H9.84v8.29zM20.25 24c0 1.4-.16 2.22-1.19 2.22-.47 0-.94-.25-1.34-.78v.72h-1.28v-9.63h1.28v3.16c.44-.53.87-.78 1.34-.78 1.03 0 1.19.8 1.19 2.25V24zm2.31.06c0 .66.22 1 .66 1 .31 0 .5-.19.56-.53v-.87h1.38v.18c0 .79-.04 1.16-.32 1.63-.37.5-.9.75-1.6.75s-1.2-.22-1.58-.69c-.29-.4-.41-.97-.41-1.72v-2.5c0-1.56.66-2.4 1.97-2.4 1.34 0 1.94.87 1.94 2.4v1.5h-2.6v1.25zM14 25.38c-.5.56-1 .84-1.47.84-.9 0-.97-.6-.97-1.6v-5.65h1.31v5.78c.04.22.13.31.32.31.22 0 .5-.19.8-.6v-5.5h1.32v7.2H14v-.79zm4.38-5.32c-.25 0-.44.1-.66.31v4.35c.19.25.4.34.66.34.37 0 .56-.34.56-.97v-3.06c0-.62-.19-.97-.57-.97zm5.46 1.66v-.66c0-.65-.21-1-.65-1s-.63.35-.63 1v.66h1.28z"/>
</symbol><symbol viewBox="0 0 32 32" fill-rule="evenodd" id="ki-youtube-f" xmlns="http://www.w3.org/2000/svg">
  <path d="M31.33 8.25A4.02 4.02 0 0 0 28.5 5.4C26 4.73 16 4.73 16 4.73s-10 0-12.5.67A4.02 4.02 0 0 0 .67 8.25 42.18 42.18 0 0 0 0 16a42.18 42.18 0 0 0 .67 7.75A4.02 4.02 0 0 0 3.5 26.6c2.5.67 12.5.67 12.5.67s10 0 12.5-.67a4.02 4.02 0 0 0 2.83-2.85A42.18 42.18 0 0 0 32 16a42.18 42.18 0 0 0-.67-7.75zm-18.6 12.5v-9.5L21.09 16z"/>
</symbol><symbol viewBox="0 0 32 32" fill-rule="evenodd" id="ki-zoom-f" xmlns="http://www.w3.org/2000/svg">
  <path d="M24 13h-4V9c0-.6-.4-1-1-1s-1 .4-1 1v4h-4c-.6 0-1 .4-1 1s.4 1 1 1h4v4c0 .6.4 1 1 1s1-.4 1-1v-4h4c.6 0 1-.4 1-1s-.4-1-1-1z"/>
  <path d="M19 1C11.8 1 6 6.8 6 14c0 3 1.1 5.8 2.8 8.1L1 29.9 3.1 32l7.8-7.8c2.2 1.8 5 2.8 8.1 2.8 7.2 0 13-5.8 13-13S26.2 1 19 1zm0 23.2c-5.6 0-10.2-4.6-10.2-10.2S13.4 3.8 19 3.8 29.2 8.4 29.2 14 24.6 24.2 19 24.2z"/>
</symbol></svg>